<svg width="205" height="206" viewBox="0 0 205 206" fill="none" xmlns="http://www.w3.org/2000/svg">
<mask id="mask0_1578_589" style="mask-type:luminance" maskUnits="userSpaceOnUse" x="25" y="17" width="153" height="172">
<path d="M178 17.8501H25.9341V188.201H178V17.8501Z" fill="white"/>
</mask>
<g mask="url(#mask0_1578_589)">
<path d="M91.2466 99.9035C96.6948 97.1785 76.1504 96.4419 75.4228 96.4419C65.783 96.4419 56.2258 100.109 47.7352 104.353C25.9588 115.242 19.7252 141.674 39.8233 157.752C59.6899 173.647 94.3386 174.223 114.982 158.741C121.241 154.048 124.159 147.183 125.358 139.952C128.351 122.026 117.322 107.778 100.142 102.87C92.867 100.791 86.7161 98.9246 78.8868 99.9035C76.0594 100.256 73.3228 101.387 70.4788 101.387" stroke="#A20000" stroke-width="4.12182" stroke-miterlimit="10" stroke-linecap="round" stroke-linejoin="round"/>
<path d="M118.934 68.2586C107.889 62.7343 92.313 87.9309 89.7667 96.4414C79.2092 131.626 120.05 160.881 151.566 146.874C175.814 136.098 182.469 100.113 165.413 80.62C160.081 74.5311 152.161 72.4378 145.142 69.2474C135.585 64.9037 123.457 62.7409 113.494 67.2698C94.0741 76.0961 87.733 105.736 96.6866 123.635C98.8444 127.956 102.962 131.011 106.574 134.018C120.273 145.434 137.106 148.343 153.054 138.963C166.439 131.087 183.188 105.793 173.325 90.0143C170.506 85.511 163.388 82.5108 158.981 80.1257C147.258 73.773 135.502 66.4042 121.902 73.2034C106.285 81.0128 97.6455 97.7964 94.7106 114.241C93.7267 119.73 92.0567 125.754 94.7106 131.052C99.6462 140.926 112.585 144.825 122.398 147.369C127.631 148.727 133.989 149.109 139.206 147.369C152.095 143.074 158.783 134.037 164.918 122.647C167.894 117.122 171.416 111.055 172.829 104.847C177.054 86.2427 160.792 69.1027 143.654 65.7867C140.049 65.0889 130.93 64.124 127.342 64.7978C103.896 69.1936 88.9813 106.542 97.6704 127.097C103.342 140.492 128.367 155.326 142.67 147.863C160.668 138.471 173.367 118.015 174.805 97.9246C176.128 79.3617 154.236 63.1708 136.734 65.2922C115.04 67.9221 100.944 88.6055 100.142 109.297C99.9935 113.288 99.7703 116.954 101.63 120.669C104.574 126.555 111.849 131.328 116.958 135.008C122.737 139.172 130.385 145.688 138.214 143.908C155.956 139.876 179.501 109.542 175.797 91.0031C172.978 76.9303 154.691 66.4125 142.67 61.8315C137.437 59.8374 129.087 58.2186 123.382 59.3587C97.3645 64.5622 76.8283 110.88 95.6945 131.546C101.564 137.976 110.625 140.208 118.934 140.941C122.456 141.252 130.74 140.995 134.262 139.952C142.926 137.386 150.673 127.918 156.014 121.163C160.255 115.806 163.876 109.964 165.91 103.364C173.582 78.4101 158.097 58.5171 131.79 57.8755C128.475 57.7945 125.044 57.8168 121.902 58.8643C106.698 63.9331 99.762 81.6443 98.6624 95.947" stroke="#A20000" stroke-width="4.12182" stroke-miterlimit="10" stroke-linecap="round" stroke-linejoin="round"/>
<path d="M80.8627 101.386C78.5644 99.0879 75.6212 95.4535 72.4548 94.4639C60.9962 90.8825 47.4294 105.614 41.7993 113.747C20.9075 143.925 34.5901 184.411 73.943 186.429C82.7643 186.882 91.809 185.057 99.6547 180.991C111.808 174.688 127.326 161.165 129.814 146.874C134.899 117.617 93.3466 89.0165 67.0149 94.4639C54.7543 97.002 41.0056 107.888 34.8795 118.692C30.721 126.033 29.8859 136.19 29.4395 144.402C28.7037 158.116 33.9535 172.688 47.7352 178.024C56.4078 181.382 67.4365 181.177 76.415 179.507C110.27 173.208 153.062 120.043 106.574 98.4199C102.796 96.6614 98.7865 95.3113 94.7106 94.4639C89.9982 93.4876 85.1702 92.8915 80.3668 92.9808C60.7978 93.3429 43.7752 108.039 37.3514 126.108C29.919 147.017 37.5085 167.43 60.5911 171.101C78.4653 173.946 100.002 170.553 112.014 155.774C128.88 135.009 124.639 110.222 101.134 96.9359C97.1413 94.6773 92.7845 92.8766 88.2788 91.992C61.2195 86.6769 42.3119 111.692 38.8396 135.997C36.7479 150.588 41.7248 166.598 56.6393 172.091C77.6137 179.818 105.855 167.148 115.47 147.369C121.233 135.536 121.158 120.316 111.022 110.781C100.969 101.315 83.1777 95.6809 69.4869 97.9247C64.5347 98.7374 59.4585 100.591 55.6472 103.858C52.1666 106.839 50.3478 111.444 48.7274 115.724C43.2461 130.141 41.8985 160.471 58.1192 169.124C79.4904 180.521 105.21 154.117 111.022 135.503C112.337 131.287 113.627 125.389 111.022 121.164C107.749 115.835 99.6381 112.299 94.2147 110.781C83.2852 107.72 79.8542 108.309 69.4869 108.309" stroke="#A20000" stroke-width="4.12182" stroke-miterlimit="10" stroke-linecap="round" stroke-linejoin="round"/>
<path d="M117.942 61.8322C119.339 64.6183 114.677 57.6514 114.486 57.3818C111.535 53.3259 109.493 48.5398 106.574 44.5268C106.335 44.197 100.407 37.187 100.638 37.1101C102.821 36.3826 108.211 39.3506 110.526 39.5821C114.569 39.9864 118.885 39.6209 122.886 39.0877C124.796 38.8339 140.223 35.1582 140.686 35.627C142.099 37.0349 139.272 39.3771 138.214 41.0653C134.684 46.7193 131.757 52.9637 129.814 59.3594C129.178 61.4337 126.887 64.8176 128.822 65.7873C129.244 65.9957 129.583 65.2028 129.814 64.7985C132.948 59.3081 130.649 56.9577 129.814 51.9427C129.732 51.4557 129.756 50.9514 129.814 50.4595C130.393 45.2105 134.543 42.3169 137.23 38.0989C137.9 37.0398 138.71 34.6382 138.71 34.6382C138.71 34.6382 137.42 37.6169 136.734 39.0877C136.114 40.4237 135.353 41.6961 134.758 43.0437C132.84 47.3526 131.368 51.803 130.31 56.393C130.12 57.2115 130.509 58.3987 129.814 58.865C129.442 59.1138 128.855 56.6576 125.358 54.9098C118.711 51.583 113.337 48.4869 107.558 43.538C107.318 43.3264 103.863 40.0765 102.614 40.0765C102.151 40.0765 103.325 40.6924 103.606 41.0653C104.317 42.016 104.896 43.0651 105.582 44.0324C106.541 45.3734 107.558 46.6689 108.55 47.9876C111.055 51.3218 115.214 60.664 119.926 61.3378C122.043 61.6404 120.447 55.4886 120.414 55.4043C118.959 51.0399 115.817 44.0886 112.998 40.5709C112.775 40.2831 112.428 41.2 112.51 41.5597C112.775 42.7849 113.461 43.8836 113.99 45.0212C114.726 46.592 120.555 56.4369 121.902 55.8987C126.664 53.9939 117.471 36.2726 122.886 38.5933C129.194 41.2951 125.036 48.8606 122.886 52.4379C122.208 53.5771 121.646 54.7933 120.91 55.8987C120.654 56.2864 120.034 57.3397 119.926 56.8874C118.331 50.5124 131.203 40.2526 133.766 35.1325C133.931 34.8027 133.005 35.3359 132.782 35.627C131.823 36.8538 131.137 38.2676 130.31 39.5821C129.161 41.3993 127.937 43.1709 126.846 45.0212C125.97 46.4986 119.778 55.1199 120.91 57.3818C121.142 57.8481 122.01 57.2363 122.398 56.8874C123.696 55.7151 124.821 54.3427 125.854 52.9323C128.938 48.7482 132.873 43.6844 134.262 38.5933C134.907 36.2297 132.344 43.128 131.79 45.5156C131.261 47.8148 130.69 50.1098 130.31 52.4379C129.872 55.0587 129.649 57.7117 129.318 60.3482" stroke="#A20000" stroke-width="4.12182" stroke-miterlimit="10" stroke-linecap="round" stroke-linejoin="round"/>
<path d="M110.204 38.8618C109.493 37.9854 103.383 25.1858 104.425 24.3442C105.31 23.6233 108.104 24.1102 109.17 23.978C112.659 23.5431 115.784 24.7146 119.174 24.5823C121.282 24.5004 123.341 23.8167 125.474 23.7341C127.938 23.6381 130.748 22.4915 133.154 21.9574C134.113 21.7433 135.866 19.3531 134.899 19.5673C133.311 19.9203 130.467 31.5385 130.062 33.2027C129.814 34.2469 129.599 35.301 129.31 36.3377C129.153 36.9024 129.078 38.4434 128.715 37.9887C128.392 37.596 131.154 25.7935 131.344 24.9824C131.65 23.639 131.385 21.687 132.609 21.0438C132.782 20.9504 131.013 26.4937 130.955 26.6558C130.286 28.5697 129.748 33.655 128.169 34.9348C128.004 35.0695 128.219 34.5106 128.235 34.299C128.318 33.5218 128.401 32.7447 128.475 31.9684C128.582 30.9631 129.517 24.8047 127.764 24.3988C125.962 23.9829 126.573 32.4305 126.631 33.2763C126.681 34.0683 126.739 34.8603 126.813 35.6507C126.838 35.9425 126.904 36.8114 126.937 36.5204C127.235 33.6707 126.226 30.2339 125.292 27.5701C125.077 26.9517 124.416 25.3479 124.176 25.9555C122.779 29.4452 125.052 33.7343 124.077 37.2951C123.82 38.2087 123.878 35.4101 123.721 34.4751C123.424 32.6629 122.886 29.8296 121.795 28.2795C121.663 28.096 121.315 27.8223 121.175 28.0017C119.323 30.4811 123.242 35.8012 122.225 38.6038C122.134 38.8444 121.935 38.1714 121.869 37.9242C121.671 37.2083 121.613 36.4634 121.448 35.74C121.291 35.0141 119.001 27.609 117.959 28.0976C117.016 28.5383 120.224 37.2571 120.042 39.0205C120.001 39.4008 119.835 38.2822 119.728 37.9176C119.521 37.2496 119.323 36.5766 119.075 35.9227C118.099 33.3308 116.347 30.0404 114.073 28.339C113.908 28.2109 113.569 28.1025 113.437 28.2737C112.378 29.694 114.867 36.7139 115.867 37.9474C116.347 38.541 115.545 36.4419 115.239 35.7408C114.949 35.0703 114.71 34.375 114.379 33.7244C113.461 31.9246 111.122 28.3068 108.989 27.814C108.203 27.6313 109.096 29.4526 109.385 30.2099C110.551 33.2928 110.146 31.9618 111.494 34.7107C111.8 35.3489 112.684 37.2405 112.585 36.5378C112.271 34.3064 106.385 26.3598 104.185 26.6748C103.871 26.7194 104.409 27.2692 104.516 27.566" stroke="#A20000" stroke-width="4.12182" stroke-miterlimit="10" stroke-linecap="round" stroke-linejoin="round"/>
</g>
</svg>
