<svg width="171" height="40" viewBox="0 0 171 40" fill="none" xmlns="http://www.w3.org/2000/svg">
<path d="M62.0922 3.96344C61.9954 3.14709 59.3464 3.04954 58.9195 2.99082C49.6296 1.71295 40.0959 1.28458 30.7345 1.18174C25.2521 1.12152 19.0197 0.409312 13.7275 2.29053C9.79004 3.69022 7.72863 7.8731 6.27547 11.725C4.93875 15.2682 4.61337 19.5707 5.57454 23.2603C7.17367 29.3988 13.7355 32.913 18.9661 34.8151C31.0952 39.2258 44.8531 39.1379 57.5177 38.9195C74.9651 38.6187 92.3566 37.0962 109.793 36.5269C119.286 36.2169 128.905 36.3925 138.347 35.1652C146.488 34.107 155.179 32.8282 162.861 29.6602C165.555 28.5494 169.963 27.2004 170 23.4937C170.043 19.1318 166.499 15.5945 163.322 13.3201C156.682 8.56678 148.166 6.06672 140.357 4.58592C126.624 1.98151 112.034 2.08961 98.1351 2.7963C65.3857 4.46146 33.3087 12.0271 1 17.2689" stroke="#A20000" stroke-width="2" stroke-linecap="round"/>
</svg>
