<svg width="69" height="26" viewBox="0 0 69 26" fill="none" xmlns="http://www.w3.org/2000/svg">
<path d="M8.88235 1.2834C5.43382 2.59824 3.7799 9.74173 4.16656 12.163C4.44853 16.5628 7.27083 19.8031 9.375 21.0514C14.2543 23.9458 17.6559 25.1318 22.7506 24.9885C29.7694 24.7911 36.7656 23.7919 43.7799 23.4183C47.5986 23.215 51.4682 23.3302 55.2665 22.5248C58.5416 21.8304 62.0376 20.9912 65.1282 18.9122C66.2117 18.1833 67.9851 17.2981 67.9998 14.8656C68.0172 12.0032 66.5918 9.68197 65.3137 8.1894C62.6426 5.07015 59.2165 3.42954 56.0754 2.45781C50.5506 0.748718 44.6814 0.819654 39.0902 1.2834C25.9158 2.37613 13.9971 3.54494 1 6.9848" stroke="#A20000" stroke-width="2" stroke-linecap="round"/>
</svg>
