<svg width="127" height="34" viewBox="0 0 127 34" fill="none" xmlns="http://www.w3.org/2000/svg">
<path d="M46.1865 3.49553C46.115 2.80807 44.1556 2.72593 43.8399 2.67648C36.9686 1.60038 29.9171 1.23964 22.993 1.15304C18.9379 1.10233 14.3281 0.502579 10.4139 2.08676C7.50151 3.26545 5.9768 6.78787 4.90198 10.0316C3.91328 13.0154 3.67261 16.6385 4.38353 19.7455C5.56633 24.9148 10.4198 27.8741 14.2886 29.4758C23.2598 33.1901 33.4357 33.1161 42.803 32.9322C55.7079 32.6789 68.5714 31.3968 81.4681 30.9174C88.4894 30.6564 95.6041 30.8042 102.588 29.7707C108.609 28.8796 115.037 27.8027 120.72 25.1349C122.712 24.1995 125.973 23.0635 126 19.9421C126.032 16.2689 123.411 13.2901 121.061 11.3748C116.15 7.37202 109.85 5.26671 104.075 4.01972C93.917 1.82653 83.1256 1.91756 72.8455 2.51267C48.6226 3.91492 24.897 10.286 1 14.7002" stroke="#A20000" stroke-width="2" stroke-linecap="round"/>
</svg>
