<svg width="95" height="39" viewBox="0 0 95 39" fill="none" xmlns="http://www.w3.org/2000/svg">
<path d="M11.9412 1.43691C7.15441 3.46395 4.85866 14.4768 5.39537 18.2096C5.78676 24.9926 9.70429 29.9882 12.625 31.9125C19.3978 36.3748 24.1194 38.2031 31.1912 37.9822C40.9336 37.6779 50.6448 36.1376 60.381 35.5616C65.6817 35.2481 71.0529 35.4257 76.3252 34.184C80.8711 33.1135 85.7239 31.8197 90.0137 28.6147C91.5178 27.491 93.9793 26.1262 93.9998 22.3762C94.0238 17.9633 92.0453 14.3847 90.2712 12.0837C86.5636 7.27482 81.808 4.74555 77.4479 3.24745C69.7793 0.612606 61.6323 0.721966 53.8715 1.43691C35.5846 3.12154 19.0408 4.92345 1 10.2266" stroke="#A20000" stroke-width="2" stroke-linecap="round"/>
</svg>
