<svg width="269" height="235" viewBox="0 0 269 235" fill="none" xmlns="http://www.w3.org/2000/svg">
<mask id="mask0_1611_759" style="mask-type:luminance" maskUnits="userSpaceOnUse" x="0" y="0" width="269" height="235">
<path d="M268.495 80.2242L59.6836 0.588623L0.987689 154.494L209.799 234.13L268.495 80.2242Z" fill="white"/>
</mask>
<g mask="url(#mask0_1611_759)">
<path d="M38.1797 68.3331C32.1117 84.244 29.3066 101.088 24.8136 117.459C22.4485 126.074 19.1101 135.301 18.0407 144.186" stroke="#A20000" stroke-width="3.47539" stroke-miterlimit="10" stroke-linecap="round" stroke-linejoin="round"/>
<path d="M38.9938 66.2007C51.2444 70.8728 64.0106 71.3062 76.6049 75.1717C101.349 82.766 125.817 87.3245 151.302 91.9354C163.171 94.0831 175.641 93.3515 187.229 96.3557C189.971 97.0669 195.336 96.7962 197.525 98.8169C199.975 101.076 196.196 108.714 195.431 110.719C191.55 120.895 189.524 131.626 186.869 142.138C184.791 150.378 182.614 159.046 181.598 167.483C181.3 169.968 181.755 174.263 179.792 176.075" stroke="#A20000" stroke-width="3.47539" stroke-miterlimit="10" stroke-linecap="round" stroke-linejoin="round"/>
<path d="M19.1958 157.816C32.573 162.917 46.9921 164.932 60.9065 168.838C72.8156 172.182 84.3276 176.637 96.4282 179.454C114.396 183.64 133.254 185.492 151.571 187.295C157.416 187.871 163.406 189.389 169.24 189.637" stroke="#A20000" stroke-width="3.47539" stroke-miterlimit="10" stroke-linecap="round" stroke-linejoin="round"/>
<path d="M93.9393 98.8797C84.4169 99.8314 78.4913 111.985 75.2854 119.61C71.8498 127.79 70.9904 137.213 73.5957 145.833C78.8103 163.086 102.045 178 119.51 170.183C128.848 166 137.801 157.501 139.565 147.056C140.564 141.1 138.558 134.386 137.313 128.611C133.541 111.101 126.445 93.4334 105.274 97.3404C99.9338 98.3286 97.4297 98.8139 92.8006 101.865C81.521 109.294 70.7046 124.192 69.7385 138.012C68.0564 161.872 87.4505 179.118 110.627 171.68C132.816 164.563 141.394 138.545 136.629 117.603C133.63 104.433 120.127 89.771 105.561 94.0308C70.9134 104.17 53.7154 164.811 101.352 169.12C104.083 169.367 106.849 169.663 109.576 169.326C132.477 166.469 138.231 141.917 136.279 122.355C135.072 110.211 125.158 97.7802 111.571 98.7654C103.349 99.3595 94.4303 106.3 88.6345 111.512C67.3555 130.631 69.1374 175.057 103.663 175.863C136.971 176.642 147.032 104.145 114.357 97.8732C92.4865 93.6737 71.0666 127.62 77.595 146.87C80.9043 156.626 87.7425 159.044 96.5819 162.415" stroke="#A20000" stroke-width="3.47539" stroke-miterlimit="10" stroke-linecap="round" stroke-linejoin="round"/>
<path d="M100 122.686C96.2976 121.274 93.8675 128.025 93.1736 130.341C90.0304 140.878 94.6966 160.87 109.596 155.167C126.375 148.746 129.638 130.843 112.882 122.225C110.989 121.251 109.041 119.969 106.91 119.948C89.0635 119.775 81.8339 154.893 99.4448 156.181C112.667 157.146 127.664 129.18 110.585 121.837C106.212 119.958 101.148 121.737 97.4857 124.169C90.2113 128.999 87.3455 137.672 88.1769 146.022C88.4911 149.244 89.5427 155.573 93.7739 156.948C104.435 160.416 126.843 131.096 108.007 124.763C95.0735 120.414 83.8638 132.652 88.5023 145.169C89.2926 147.308 90.3667 149.532 92.1514 150.957C101.074 158.086 124.636 134.162 111.581 125.637C102.391 119.636 91.784 122.461 87.7105 133.143C85.125 139.922 85.4046 150.121 93.9612 152.624C101.707 154.889 116.229 141.631 115.276 133.885C114.905 130.906 110.71 126.974 108.695 125.513C106.956 124.252 105.15 122.859 103.049 122.383C84.3401 118.152 86.342 153.176 100.646 151.754C105.177 151.301 108.776 147.284 111.372 144.12C113.354 141.692 116.484 136.798 116.877 133.519C117.577 127.708 106.767 120.986 101.935 121.47C96.5791 122.003 93.5077 126.91 91.8348 131.296C90.9262 133.679 90.3242 136.606 91.3675 138.934" stroke="#A20000" stroke-width="3.47539" stroke-miterlimit="10" stroke-linecap="round" stroke-linejoin="round"/>
<path d="M101.668 97.187C102.989 91.2386 100.329 93.293 96.2535 95.3656C93.9231 96.5542 91.7436 98.0575 89.7143 99.711C82.1042 105.918 76.7414 113.662 72.7076 122.535C63.3724 143.061 76.6495 163.356 96.5314 170.213C103.414 172.586 109.964 171.691 116.786 169.632C138.85 162.961 141.132 136.84 136.204 117.441C134.273 109.844 129.867 97.5456 121.421 94.7052C114.87 92.5029 107.048 97.2551 101.412 99.7757C78.7845 109.913 73.4888 128.035 77.8324 151.357C79.8436 162.126 80.9638 172.061 93.141 175.27C99.7831 177.02 107.824 175.433 114.038 172.981C135.578 164.488 137.98 137.368 133.743 117.48C131.688 107.821 126.529 97.3772 116.245 94.197C110.546 92.435 106.325 92.951 101.274 96.3038C100.078 97.0975 101.062 99.9363 101.668 97.187Z" stroke="#A20000" stroke-width="3.47539" stroke-miterlimit="10" stroke-linecap="round" stroke-linejoin="round"/>
<path d="M35.8194 69.387C37.5385 67.8137 33.4543 78.1444 33.4252 78.2443C31.0788 86.2896 28.3364 94.2136 25.7559 102.187C21.5458 115.214 18.9258 128.307 16.9893 141.831C16.4923 145.264 16.1825 148.727 15.9716 152.19C15.9021 153.295 15.7627 154.394 15.6838 155.5C15.6458 155.979 15.45 157.391 15.6213 156.942C17.3691 152.359 17.3653 147.069 18.2657 142.318C19.9069 133.661 21.9489 124.805 24.7133 116.444C26.2958 111.679 28.2914 107.062 30.0806 102.371C30.406 101.517 31.9661 99.7219 31.0565 99.8118C28.1198 100.106 27.7074 104.689 26.2645 107.265C25.1378 109.273 23.9267 111.242 22.9662 113.335C17.6645 124.941 9.69639 144.131 17.6483 156.738C21.3795 162.642 30.0483 162.533 35.9888 163.732C48.0376 166.165 58.7525 170.227 71.2102 171.303" stroke="#A20000" stroke-width="3.47539" stroke-miterlimit="10" stroke-linecap="round" stroke-linejoin="round"/>
<path d="M197.731 100.85C189.357 122.808 186.282 146.677 179.932 169.291C179.061 172.379 178.09 175.444 177.367 178.571C176.541 182.18 175.738 185.8 175.173 189.458C175.045 190.267 174.447 191.623 175.211 191.915C175.92 192.185 175.793 190.507 176.024 189.782C176.628 187.893 177.257 186.006 177.713 184.076C179.9 174.816 181.795 165.446 183.96 156.172C184.653 153.173 185.114 150.119 185.929 147.152C186.373 145.539 187.122 144.025 187.718 142.462C187.881 142.035 188.369 140.755 188.206 141.182C183.678 153.055 180.604 165.257 176.416 177.231C175.227 180.632 173.078 185.156 172.45 188.908C172.338 189.579 172.128 190.509 172.651 190.938C173.022 191.243 173.673 190.292 173.564 189.821C173.083 187.698 169.271 189.057 167.104 188.823C162.18 188.295 150.069 184.652 145.861 185.606C145.249 185.745 146.895 186.326 147.408 186.685" stroke="#A20000" stroke-width="3.47539" stroke-miterlimit="10" stroke-linecap="round" stroke-linejoin="round"/>
<path d="M36.5283 76.4961C33.1037 73.6921 38.4984 69.2955 40.5318 67.2762C41.3568 66.4619 43.1806 63.6435 42.9546 64.7801C40.1129 78.8567 35.39 93.4649 31.1773 107.185C30.4152 109.656 29.334 112.018 28.4122 114.435C28.2497 114.861 27.931 116.17 27.9243 115.715C27.7877 107.436 28.8262 98.1818 29.4591 89.9207C32.9072 44.7952 82.8972 74.9498 106.38 81.6413C113.673 83.7197 120.794 84.7086 128.311 85.6089C141.712 87.2166 153.22 90.738 166.085 94.1537C173.517 96.1265 181.763 95.6354 189.363 97.1694C192.773 97.8573 206.452 98.8788 208.416 101.016C209.692 102.405 205.403 106.953 204.793 107.939C201.585 113.179 198.945 118.658 196.585 124.348C191.682 136.141 189.124 147.65 186.397 160.031C184.81 167.22 183.412 174.458 181.15 181.479C180.495 183.505 179.632 185.459 178.873 187.449C178.602 188.159 178.023 190.34 178.06 189.581C178.249 185.014 183.403 170.72 182.022 167.644C181.774 167.089 181.508 168.758 181.372 169.35C181.029 170.864 180.888 172.417 180.604 173.943C180.262 175.761 179.845 177.566 179.503 179.385C178.598 184.242 177.54 196.435 170.112 196.32C141.746 195.878 113.943 184.805 86.9825 177.318C78.2921 174.905 69.5243 174.942 60.7264 173.166" stroke="#A20000" stroke-width="3.47539" stroke-miterlimit="10" stroke-linecap="round" stroke-linejoin="round"/>
<path d="M56.686 64.6443C54.896 66.2853 55.8289 53.7114 58.9423 52.3152C61.4257 51.1985 67.4018 55.7833 70.1896 56.1164C70.4487 56.1467 79.9912 57.3196 79.6351 58.2532C78.9567 60.0321 68.4931 57.8437 68 56.7469C67.7984 56.3054 68.9639 56.7508 69.439 56.8066C70.2238 56.9019 73.8663 57.5728 74.4595 57.7449C77.0123 58.4811 85.8357 60.7822 86.17 64.1647C86.394 66.3933 81.9509 71.0391 80.8901 72.8978C79.0812 76.0793 79.8836 74.2592 78.8383 77.0001C78.6754 77.4271 78.1875 78.7065 78.3503 78.2795C79.551 75.1313 83.4019 62.6208 78.6592 60.812C75.7601 59.7064 74.7966 68.0769 74.8185 69.6049C74.8353 70.6257 75.5391 73.5833 75.1188 72.6505C72.7867 67.4314 65.4988 63.9679 60.2769 61.6172C58.9986 61.0413 56.3451 59.6223 56.115 61.0064C55.4883 64.7082 68.7287 67.7553 71.1442 67.7155C73.0511 67.6847 76.5817 68.8381 76.8076 66.9443C77.0298 65.1078 73.2159 65.7144 71.3693 65.8476C65.6807 66.259 59.5446 65.998 54.0004 66.5511C53.3913 66.6102 55.135 66.9838 55.7101 67.2031C56.9864 67.6898 58.2626 68.1765 59.5467 68.6663C61.0908 69.2552 73.5531 73.3483 73.1088 68.9529C72.8321 66.1528 54.161 64.7813 53.3918 60.4569C52.8092 57.1575 67.8965 60.7096 69.2594 61.1346C70.2758 61.451 71.2448 61.8918 72.2453 62.2734C72.8125 62.4897 74.502 62.6738 73.9469 62.9223C72.0651 63.7631 64.7092 62.2996 62.5747 62.0045C61.5116 61.858 58.7241 60.7669 59.7514 60.4395C64.8814 58.7954 72.5313 63.5583 77.4832 61.34C78.9953 60.6641 73.1802 58.7098 73.1129 58.6968C71.0599 58.2829 58.0317 57.6369 57.8039 55.3003C57.4893 52.1735 68.4411 56.9151 69.7016 57.3958" stroke="#A20000" stroke-width="3.47539" stroke-miterlimit="10" stroke-linecap="round" stroke-linejoin="round"/>
<path d="M153.732 106.051C153.022 104.458 153.053 105.275 153.694 103.594C153.857 103.168 154.176 101.858 154.182 102.315M154.182 102.315C154.198 103.528 152.396 114.335 152.939 114.542C154.113 114.99 153.435 112.058 153.389 110.806C153.33 109.495 152.55 103.044 154.182 102.315ZM154.182 102.315C155.117 101.899 160.195 104.533 161.593 104.653C165.428 104.985 169.554 103.749 173.29 104.717C176.205 105.474 179.422 107.449 182.411 107.707C183.599 107.809 186.777 106.242 187.757 107.792C188.195 108.487 183.36 123.58 181.739 123.571C172.671 123.521 163.814 114.894 154.912 115.783C149.987 116.272 157.172 118.823 158.098 118.951C161.458 119.417 165.48 118.477 168.945 118.692C171.74 118.863 174.644 119.152 177.431 119.486" stroke="#A20000" stroke-width="3.47539" stroke-miterlimit="10" stroke-linecap="round" stroke-linejoin="round"/>
<path d="M163.404 81.5921C159.323 72.4871 160.188 59.0257 161.713 49.5624" stroke="#A20000" stroke-width="3.47539" stroke-miterlimit="10" stroke-linecap="round" stroke-linejoin="round"/>
<path d="M205.037 84.6299C207.189 78.9875 221.863 68.8334 227.335 66.3867" stroke="#A20000" stroke-width="3.47539" stroke-miterlimit="10" stroke-linecap="round" stroke-linejoin="round"/>
<path d="M212.213 126.597C221.996 132.322 233.344 136.284 244.404 138.518" stroke="#A20000" stroke-width="3.47539" stroke-miterlimit="10" stroke-linecap="round" stroke-linejoin="round"/>
</g>
</svg>
