<svg width="658" height="187" viewBox="0 0 658 187" fill="none" xmlns="http://www.w3.org/2000/svg">
<mask id="mask0_1611_742" style="mask-type:luminance" maskUnits="userSpaceOnUse" x="0" y="0" width="658" height="187">
<path d="M657.277 0H0V187H657.277V0Z" fill="white"/>
</mask>
<g mask="url(#mask0_1611_742)">
<path d="M42.582 8.18405C38.9453 13.9657 37.8258 29.3073 35.7968 36.2955C31.1828 52.1891 25.7494 67.6305 19.1417 82.713C17.6382 86.1461 13.5952 101.28 8.65545 102.326C4.92121 103.118 5.9831 90.4815 6.1883 89.2512C7.59694 80.7887 13.4909 72.3915 20.9926 68.9842C30.721 64.5649 32.8705 89.5153 45.6661 90.5583C46.9136 90.6602 48.287 90.5726 49.3672 89.9051C58.3588 84.346 70.5394 50.0803 65.4053 40.872C58.0459 27.6722 25.1318 39.4415 15.4406 43.4876C9.25278 46.0708 -4.33855 53.5988 7.42223 59.8312" stroke="#A20000" stroke-width="3.70297" stroke-miterlimit="10" stroke-linecap="round" stroke-linejoin="round"/>
<path d="M72.8071 70.292C81.1066 58.9297 67.82 76.8955 70.9562 82.713C72.2016 85.0235 76.8305 81.6507 77.1251 81.406C81.1079 78.0891 86.0374 71.9457 86.9944 66.3694C87.5077 63.3748 85.3372 63.0963 83.2933 62.4468C75.474 59.9604 67.2938 77.8386 72.8071 70.292Z" stroke="#A20000" stroke-width="3.70297" stroke-miterlimit="10" stroke-linecap="round" stroke-linejoin="round"/>
<path d="M104.266 42.1798C100.978 43.3411 98.5416 52.2185 97.4804 55.2554C92.9714 68.1573 89.2818 81.9019 85.7602 95.1347C84.0631 101.514 83.6513 108.201 82.6761 114.748C82.4736 116.109 82.0239 119.904 81.4422 118.67C79.3258 114.183 81.3657 108.597 82.0591 103.634C83.354 94.3703 85.4142 82.0505 90.6952 74.2146C92.5799 71.4174 93.7522 82.6262 93.7793 82.713C94.9021 86.2832 96.8912 84.8096 99.9475 82.713C104.069 79.8864 106.574 75.9774 109.817 72.2529C112.16 69.5634 113.131 69.5606 114.135 66.3694C114.265 65.9559 114.426 64.7537 114.135 65.0616C112.253 67.0563 108.647 76.9191 112.902 77.4833C118.122 78.1745 126.535 68.8069 128.323 63.7538C130.302 58.1609 112.285 58.0719 112.285 68.3303" stroke="#A20000" stroke-width="3.70297" stroke-miterlimit="10" stroke-linecap="round" stroke-linejoin="round"/>
<path d="M138.193 68.9842C136.405 71.8266 133.31 72.9549 138.193 66.3693C141.156 62.3714 144.258 59.0445 148.062 55.9086C149.817 54.4615 151.661 53.115 153.614 51.986C153.975 51.7778 154.717 51.5725 154.847 51.986C155.517 54.1149 152.908 55.9825 151.763 57.8702C150.561 59.8527 139.851 76.5531 148.679 74.2146C154.753 72.6046 160.448 66.9716 164.717 62.4467C166.613 60.4377 168.187 57.9506 169.034 55.2554C169.295 54.4278 169.616 52.0233 169.034 52.6398C167.618 54.1407 161.885 73.3691 168.418 70.292C173.049 68.1099 178.316 61.4842 181.989 57.8702C182.068 57.792 189.915 50.4829 189.391 49.3711C188.543 47.5738 186.16 51.6479 185.073 53.2937C183.84 55.1599 178.462 62.492 181.372 65.0616C186.988 70.0221 212.786 51.7053 211.597 44.1407C211.04 40.5978 205.217 44.4436 204.812 44.7946C201.999 47.2343 198.066 54.4099 199.26 58.5241C202.782 70.6537 223.394 56.8438 228.251 53.9476" stroke="#A20000" stroke-width="3.70297" stroke-miterlimit="10" stroke-linecap="round" stroke-linejoin="round"/>
<path d="M106.733 125.862C106.939 125.426 107.556 124.118 107.35 124.555C104.517 130.561 100.092 136.52 98.0978 142.86C97.3827 145.134 96.0187 149.107 98.0978 150.051C103.208 152.373 115.264 138.03 115.986 133.053C116.919 126.626 91.6594 126.24 96.2469 122.593C98.1655 121.068 100.351 119.963 102.416 118.67C104.875 117.13 107.315 115.553 109.818 114.094C113.768 111.791 114.234 111.699 117.836 110.171" stroke="#A20000" stroke-width="3.70297" stroke-miterlimit="10" stroke-linecap="round" stroke-linejoin="round"/>
<path d="M131.408 123.901C134.606 113.729 125.411 137.144 124.622 138.937C123.96 140.441 123.267 141.939 122.771 143.514C122.641 143.927 122.481 145.13 122.771 144.821C127.511 139.799 128.27 129.691 132.641 123.901C133.503 122.759 135.83 120.582 136.342 121.939C137.818 125.85 133.363 144.692 138.81 144.168C145.502 143.523 151.453 134.233 155.464 129.13C157.105 127.044 158.457 124.567 159.165 121.939C159.278 121.52 159.576 120.632 159.165 120.632C156.198 120.632 146.729 142.122 152.997 142.86C159.566 143.634 167.019 133.397 170.268 128.477C172.123 125.669 175.188 121.931 173.969 121.285C172.643 120.583 172.053 123.749 171.502 125.208C170.913 126.769 162.968 145.748 172.119 140.898C176.647 138.5 186.137 124.461 189.391 119.978C190.193 118.872 191.001 117.769 191.858 116.709C192.236 116.241 192.832 114.85 193.092 115.402C193.785 116.871 191.028 123.925 190.624 125.208C187.385 135.509 188.573 145.723 185.69 156.589C184.686 160.371 183.422 164.08 181.989 167.703C180.744 170.849 179.159 173.832 177.671 176.856C176.377 179.484 175.532 184.047 172.736 184.047C167.127 184.047 172.13 162.557 173.352 159.858C180.713 143.604 194.249 131.835 205.428 118.67C209.196 114.234 212.609 108.446 216.531 104.288C216.991 103.8 216.156 105.609 215.915 106.249C215.333 107.79 214.646 109.284 214.064 110.825C212.07 116.111 209.89 121.23 207.896 126.516C207.314 128.057 206.693 129.581 206.045 131.092C205.665 131.979 204.812 134.682 204.812 133.707C204.812 128.687 210.604 120.477 213.447 116.709C214.174 115.747 215.17 115.041 215.915 114.094C216.209 113.72 216.531 112.299 216.531 112.787C216.531 113.476 216.12 114.094 215.915 114.748" stroke="#A20000" stroke-width="3.70297" stroke-miterlimit="10" stroke-linecap="round" stroke-linejoin="round"/>
<path d="M208.513 123.901C206.105 129.005 214.067 130.437 217.149 129.131C220.348 127.775 234.42 115.063 234.42 111.479C234.42 110.992 233.481 111.758 233.187 112.133C232.419 113.109 231.872 114.265 231.336 115.402C230.423 117.338 223.937 131.353 231.336 129.784C236.953 128.594 244.487 121.166 247.991 116.709C249.598 114.666 251.186 112.551 252.309 110.171C252.493 109.782 252.72 108.864 252.309 108.864C251.341 108.864 240.143 129.618 248.608 127.823C251.796 127.147 253.897 123.811 256.627 121.939C262.336 118.024 268.436 114.653 273.282 109.518C276.197 106.428 279.443 101.885 278.216 101.019C273.213 97.4833 260.459 118.698 264.029 123.901C267.01 128.245 276.81 126.498 279.45 125.862C288.137 123.769 296.352 119.885 304.74 116.709" stroke="#A20000" stroke-width="3.70297" stroke-miterlimit="10" stroke-linecap="round" stroke-linejoin="round"/>
<path d="M346.684 97.0964C343.719 95.5252 339.614 115.538 344.834 114.748C349.683 114.014 354.694 106.117 357.171 102.326C358.114 100.882 358.844 99.292 359.638 97.7503C360.078 96.8947 360.222 94.4457 360.872 95.1347C363.153 97.5522 349.892 114.094 359.021 114.094" stroke="#A20000" stroke-width="3.70297" stroke-miterlimit="10" stroke-linecap="round" stroke-linejoin="round"/>
<path d="M431.194 85.9825C431.194 86.6357 431.314 87.3025 431.194 87.9434C430.477 91.7404 434.955 83.2822 430.577 84.6747C425.301 86.3521 410.653 98.6655 413.922 105.596C416.444 110.942 430.705 95.3027 432.427 93.1738C433.392 91.9802 434.174 90.625 434.895 89.2512C435.21 88.6483 436.052 86.9077 435.511 87.2895C431.28 90.2798 426.685 107.442 425.025 112.133C419.375 128.103 414.57 145.361 407.136 160.511C406.11 162.603 405.081 164.81 403.435 166.396C399.018 170.651 394.674 161.154 394.183 158.55C393.284 153.785 394.367 148.317 396.65 144.168C405.601 127.904 421.77 115.835 434.278 102.98C440.525 96.5595 445.443 89.1852 451.549 82.713" stroke="#A20000" stroke-width="3.70297" stroke-miterlimit="10" stroke-linecap="round" stroke-linejoin="round"/>
<path d="M460.801 67.6764C461.624 66.3694 462.483 65.0867 463.269 63.7538C466.181 58.8163 459.267 70.2755 458.334 72.2529C457.101 74.8678 455.903 77.5027 454.633 80.0982C448.628 92.3735 443.445 104.902 439.212 118.017C438.033 121.671 437.075 125.402 436.128 129.13C435.635 131.071 434.895 135.015 434.895 135.015C434.895 135.015 437.112 125.346 438.596 120.632C439.562 117.559 440.562 114.494 441.68 111.479C445.016 102.477 448.756 94.6517 454.633 87.2895C454.978 86.8581 460.678 79.6079 462.035 81.4059C464.82 85.0953 456.065 98.9468 454.016 98.4035C453.386 98.2369 453.084 97.0447 453.4 96.4425C457.186 89.2189 468.582 83.8334 474.989 80.0982C476.611 79.1529 482.439 75.9121 484.242 74.2146C485.329 73.1903 487.326 69.4048 487.326 70.9451C487.326 72.1819 475.086 88.1846 478.073 90.5582C480.723 92.6649 496.696 77.6082 499.046 74.8678C499.27 74.6065 502.977 69.7027 503.364 68.9842C503.686 68.3856 504.341 66.4498 503.981 67.0233C492.254 85.6659 487.2 108.406 479.924 129.13C478.539 133.075 477.382 137.134 475.606 140.898C474.498 143.245 473.02 147.612 470.671 146.783C469.189 146.259 469.576 137.044 470.671 132.4C471.523 128.787 472.801 125.27 474.372 121.939C481.938 105.902 495.128 92.8659 508.298 82.0598C513.146 78.0798 517.982 74.0473 522.486 69.6381C523.454 68.6913 525.154 65.699 525.567 67.0233C526.095 68.6899 523.847 70.0278 523.102 71.599C521.456 75.086 519.709 78.5198 518.165 82.0598C517.623 83.3109 517.345 84.6747 516.932 85.9824C516.729 86.6356 515.7 88.1616 516.316 87.9434C517.447 87.545 527.734 76.1296 526.806 82.0598C526.495 84.0416 525.973 85.9803 525.567 87.9434C522.871 101.107 519.905 114.207 512.002 125.208C510.302 127.566 507.397 132.29 505.216 130.438C501.142 126.986 506.259 116.133 507.681 113.441C515.571 98.504 527.314 86.8043 539.139 75.5217C543.107 71.7412 548.308 66.2624 552.71 62.4467C553.286 61.9486 554.891 60.4363 554.559 61.139C550.997 68.6899 544.983 73.5557 543.459 82.713C543.439 82.8429 542.674 88.7157 544.692 89.2512C550.36 90.7535 561.142 76.3937 557.031 74.2146C552.236 71.673 542.261 82.7754 544.692 86.6356C547.949 91.8143 565.801 79.9826 568.747 77.4833C570.108 76.3277 571.293 74.9424 572.452 73.5607C572.946 72.9736 574.097 70.9451 573.684 71.599C564.345 86.444 573.643 86.5294 584.784 79.4443C592.091 74.7974 597.333 69.2548 599.588 60.4851C599.812 59.618 600.523 58.7043 600.211 57.8702C599.155 55.0824 594.915 60.226 590.953 65.7155C586.87 71.3737 581.804 79.221 583.551 86.6356" stroke="#A20000" stroke-width="3.70297" stroke-miterlimit="10" stroke-linecap="round" stroke-linejoin="round"/>
<path d="M652.641 6.87627C653.257 5.56849 654.49 2.95364 654.49 2.95364C654.49 2.95364 650.9 9.56719 648.936 12.7605C647.067 15.7982 645.205 18.8422 643.383 21.9128C635.5 35.2081 628.403 48.4373 621.793 62.4468" stroke="#A20000" stroke-width="3.70297" stroke-miterlimit="10" stroke-linecap="round" stroke-linejoin="round"/>
<path d="M609.151 89.5778C608.928 84.8075 605.514 94.5462 608.23 93.8277C609.761 93.4214 611.129 87.751 610.079 86.6356C608.562 85.0285 606.537 88.8672 606.374 89.9051C606.273 90.5496 605.941 92.3282 606.374 91.866C607.749 90.4125 609.219 90.9968 609.151 89.5778Z" stroke="#A20000" stroke-width="3.70297" stroke-miterlimit="10" stroke-linecap="round" stroke-linejoin="round"/>
</g>
</svg>
