<svg width="223" height="254" viewBox="0 0 223 254" fill="none" xmlns="http://www.w3.org/2000/svg">
<mask id="mask0_1611_778" style="mask-type:luminance" maskUnits="userSpaceOnUse" x="0" y="0" width="223" height="254">
<path d="M183.609 -1.96452e-05L0 32.3751L38.9874 253.484L222.596 221.108L183.609 -1.96452e-05Z" fill="white"/>
</mask>
<g mask="url(#mask0_1611_778)">
<path d="M73.8657 100.704C73.1026 96.3765 72.9599 92.2035 72.2189 88.0014C72.1515 87.6191 72.4434 88.7612 72.4209 89.1472C72.3174 90.5561 72.0504 91.9496 71.9772 93.3592C71.8968 94.9561 71.6439 96.5442 71.6443 98.1429C71.6384 101.873 71.5634 105.611 71.8372 109.331C72.753 121.425 74.2966 135.769 79.0786 147.035C80.3493 150.022 88.3765 163.782 93.7389 159.807C103.902 152.264 101.355 118.032 100.318 106.672C99.8804 101.911 98.6242 97.0679 97.7926 92.3518C97.5232 90.8236 96.9846 87.7692 96.9846 87.7692C96.9846 87.7692 96.9101 92.8794 97.1465 95.4179C97.6409 100.788 97.6158 105.834 97.5822 111.289C97.5154 124.368 98.6002 137.878 97.474 150.88C97.2172 153.871 97.5093 159.691 93.9409 160.953C89.5111 162.518 84.544 151.513 82.9252 148.72C75.416 135.844 74.0195 121.993 72.6849 107.409C72.3358 103.662 72.425 99.8333 73.0577 96.122C73.3602 94.3592 73.2527 92.5521 73.2896 90.7658C73.3036 90.332 73.7909 89.1028 73.663 89.5185C71.5627 96.5967 74.6446 105.122 75.8858 112.161C77.8458 123.277 78.8893 135.069 81.845 145.957C82.9386 149.993 85.8281 159.308 89.9232 161.661C96.4214 165.382 98.8856 139.155 98.9568 135.852" stroke="#A20000" stroke-width="2.79463" stroke-miterlimit="10" stroke-linecap="round" stroke-linejoin="round"/>
<path d="M73.6132 84.2124C73.2928 85.19 72.2241 82.0944 71.2098 82.2732C67.8551 82.8647 75.0707 88.0298 75.1784 88.0702C79.028 89.5442 83.1647 89.9088 87.2433 89.4873C87.7863 89.4308 101.567 86.4931 98.5701 83.3553C95.2302 79.8678 76.1304 76.3618 73.5017 81.8691C68.2417 92.869 91.9891 97.5836 94.2494 82.3454C95.3192 75.1824 80.2951 75.4032 76.7016 76.5798C72.7467 77.8735 74.2575 82.2778 73.6132 84.2124Z" stroke="#A20000" stroke-width="2.79463" stroke-miterlimit="10" stroke-linecap="round" stroke-linejoin="round"/>
<path d="M83.568 115.532C80.6342 117.313 82.1606 119.754 84.1739 118.968C86.4037 118.099 84.8126 110.672 83.7296 113.14C83.3149 114.096 83.9405 115.306 83.568 115.532Z" stroke="#A20000" stroke-width="2.79463" stroke-miterlimit="10" stroke-linecap="round" stroke-linejoin="round"/>
<path d="M86.8513 134.147C84.8303 136.144 87.9331 139.312 88.649 137.67C89.5311 135.658 88.2808 132.731 86.8513 134.147Z" stroke="#A20000" stroke-width="2.79463" stroke-miterlimit="10" stroke-linecap="round" stroke-linejoin="round"/>
<path d="M90.5999 162.133C90.4427 161.241 89.9514 159.481 90.5694 158.594C90.7948 158.276 90.7434 159.353 90.7714 159.74C90.8618 161.108 90.8326 162.483 90.9029 163.851C91.1752 169.273 91.4246 171.314 92.0851 177.227C93.2233 187.503 94.3054 197.689 95.1464 207.991C95.5106 212.451 95.9445 216.908 96.3187 221.368C96.3565 221.753 96.5881 222.896 96.5207 222.513C94.4777 210.927 92.9603 199.014 92.0857 187.267C91.7425 182.755 92.1988 178.214 92.0448 173.691C92.0065 172.333 91.3699 168.324 91.3377 169.681C91.0594 182.131 92.1016 194.086 94.2682 206.374" stroke="#A20000" stroke-width="2.79463" stroke-miterlimit="10" stroke-linecap="round" stroke-linejoin="round"/>
<path d="M95.0067 213.921C90.5987 214.699 87.4667 215.185 83.9616 218.231C76.8632 224.394 77.293 236.298 87.2242 240.099C97.8463 244.169 118.619 237.032 119.197 223.831C119.919 207.677 71.802 214.509 80.6208 229.452C86.6587 239.686 103.786 239.022 111.818 232.219C114.662 229.814 119.106 224.855 117.45 220.595C113.833 211.314 88.7298 213.395 83.3862 218.332C80.7662 220.753 82.0309 224.047 82.5085 226.756" stroke="#A20000" stroke-width="2.79463" stroke-miterlimit="10" stroke-linecap="round" stroke-linejoin="round"/>
<path d="M110.828 80.8985C117.353 83.3458 118.443 92.8902 122.52 98.6226C128.989 107.708 136.856 117.251 144.38 125.481C148.253 129.707 153.946 136.105 159.444 130.503C171.104 118.622 146.097 92.2754 138.158 83.4622C135.019 79.9773 132.561 76.3584 129.737 72.5447C128.905 71.4214 127.887 70.4355 126.839 69.5112C126.423 69.1501 125.391 68.029 125.487 68.5692C126.265 72.9869 132.807 79.9199 135.19 83.3952C142.35 93.836 151.151 103.601 156.717 115.037C158.767 119.254 161.605 127.535 159.171 132.323C156.628 137.346 146.644 127.943 145.158 126.525C134.198 116.038 126.431 103.123 117.098 91.3103C115.221 88.9314 107.867 79.7886 110.828 80.8985Z" stroke="#A20000" stroke-width="2.79463" stroke-miterlimit="10" stroke-linecap="round" stroke-linejoin="round"/>
<path d="M113.631 68.2962C110.317 70.0881 103.396 83.7026 110.624 84.7731C117.304 85.7631 122.919 77.5152 126.292 73.1517C127.094 72.1142 131.218 67.5561 130.915 65.8388C130.456 63.235 124.906 64.2095 123.06 64.8617C117.268 66.9098 102.174 73.9211 107.827 82.313C115.959 94.3894 127.226 75.4244 124.615 66.9496C122.132 58.9108 108.017 69.9889 109.715 79.6182" stroke="#A20000" stroke-width="2.79463" stroke-miterlimit="10" stroke-linecap="round" stroke-linejoin="round"/>
<path d="M75.1502 104.613C76.8404 104.733 97.8949 109.687 96.8465 103.741C96.7712 103.314 96.1531 104.256 95.7968 104.516C94.3295 105.605 93.2293 106.151 91.4251 106.469C86.1785 107.394 80.5761 108.583 75.4532 106.332C74.9518 106.111 73.9419 105.915 74.1004 105.389C74.486 104.097 79.8181 106.051 80.128 106.098C84.0517 106.68 88.7232 106.543 92.364 105.122" stroke="#A20000" stroke-width="2.79463" stroke-miterlimit="10" stroke-linecap="round" stroke-linejoin="round"/>
<path d="M128.143 97.041C122.337 105.858 135.891 90.1715 137.814 88.2477C138.738 87.3276 142.231 85.6971 140.954 85.9223C135.678 86.8526 130.987 96.464 128.082 100.005C127.022 101.294 125.676 102.325 124.579 103.576C124.035 104.194 122.371 105.363 123.156 105.599C125.575 106.314 144.767 80.5752 134.21 91.2461C130.959 94.5344 128.628 96.3159 128.143 97.041Z" stroke="#A20000" stroke-width="2.79463" stroke-miterlimit="10" stroke-linecap="round" stroke-linejoin="round"/>
<path d="M138.766 106.981L140.583 107.251" stroke="#A20000" stroke-width="2.79463" stroke-miterlimit="10" stroke-linecap="round" stroke-linejoin="round"/>
<path d="M151.679 118.287C151.778 118.675 152.329 119.748 152.174 119.382C151.665 118.264 151.373 117.065 151.679 118.287Z" stroke="#A20000" stroke-width="2.79463" stroke-miterlimit="10" stroke-linecap="round" stroke-linejoin="round"/>
<path d="M160.453 136.232C160.372 136.176 157.321 133.239 157.555 133.198C158.862 132.968 163.303 140.081 165.774 142.971C171.28 149.394 176.703 155.852 182.686 161.842C184.553 163.706 188.38 167.334 188.38 167.334C188.38 167.334 185.922 164.626 184.705 163.257C182.282 160.521 179.718 157.901 177.365 155.102C175.863 153.313 160.877 133.794 159.473 134.041C158.907 134.141 159.468 135.269 159.776 135.76C160.857 137.44 162.338 138.826 163.552 140.41C165.404 142.815 167.131 145.31 168.974 147.722C174.111 154.443 179.247 160.647 185.785 166.02" stroke="#A20000" stroke-width="2.79463" stroke-miterlimit="10" stroke-linecap="round" stroke-linejoin="round"/>
<path d="M195.558 157.801C190.289 160.655 186.64 164.766 183.534 169.962C181.366 173.575 180.608 175.721 179.315 179.565C176.166 188.91 186.209 190.265 192.965 186.608C199.114 183.276 213.845 166.792 208.662 158.443C205.809 153.839 197.415 158.012 194.72 159.72C188.488 163.671 169.752 182.7 181.708 189.774C193.294 196.629 207.308 176.992 209.138 167.809C209.535 165.787 210.52 157.23 208.157 155.579C199.037 149.19 185.928 168.083 183.09 174.174" stroke="#A20000" stroke-width="2.79463" stroke-miterlimit="10" stroke-linecap="round" stroke-linejoin="round"/>
<path d="M17.8005 77.5157C21.6777 80.2297 25.4252 80.8962 30.0672 80.0777C30.4476 80.0107 31.2758 80.2588 31.2084 79.8765C30.8074 77.6023 18.2412 77.1635 16.5489 77.1462C14.9873 77.1289 13.4297 77.2487 11.8741 77.3792C11.2896 77.429 9.60054 77.4875 10.1479 77.6835C17.7158 80.3994 26.2952 79.5 33.9041 81.7642" stroke="#A20000" stroke-width="2.79463" stroke-miterlimit="10" stroke-linecap="round" stroke-linejoin="round"/>
<path d="M69.027 33.0468C70.4995 35.5242 66.1179 28.0676 64.7458 25.5323C64.3607 24.8309 63.2914 22.7007 63.7666 23.3429C66.7081 27.3079 69.2523 32.3284 71.4503 36.7533C72.8244 39.5276 75.0721 45.4882 75.1563 44.3693C75.4282 40.5506 70.2604 27.1531 66.4622 25.2296C65.7548 24.8677 66.018 26.8725 66.291 27.6228C67.1582 29.9173 69.3688 31.6774 69.7946 34.092C70.1572 36.1487 67.5543 30.5685 69.027 33.0468Z" stroke="#A20000" stroke-width="2.79463" stroke-miterlimit="10" stroke-linecap="round" stroke-linejoin="round"/>
<path d="M142.111 25.4753C141.182 14.3902 136.881 29.3447 137.084 30.4965C137.159 30.9226 137.884 30.0758 138.133 29.7202C139.153 28.2574 139.887 26.6036 140.859 25.1058C141.968 23.4071 152.369 8.48909 154.003 9.20344C154.734 9.52513 154.188 10.8773 153.832 11.5967C152.147 15.046 149.43 17.8851 147.23 21.0293C145.968 22.8264 145.604 26.8674 143.454 26.42C141.471 26.0065 142.407 29.0379 142.111 25.4753Z" stroke="#A20000" stroke-width="2.79463" stroke-miterlimit="10" stroke-linecap="round" stroke-linejoin="round"/>
</g>
</svg>
