<svg width="139" height="68" viewBox="0 0 139 68" fill="none" xmlns="http://www.w3.org/2000/svg">
<path d="M61.813 15.1914C61.813 12.7499 76.1755 8.13734 78.5404 7.40654C94.1968 2.56804 111.604 -1.65636 126.682 6.99656C137.66 13.2967 141.572 27.0757 129.946 34.8592C126.97 36.8523 124.191 37.334 120.971 38.5469C109.691 42.7953 98.4017 46.9957 87.1082 51.2494C79.3851 54.1577 71.6786 57.768 64.261 61.4928C61.4056 62.9269 58.7587 64.9737 55.6932 66M61.8295 14.8914C60.5268 15.5363 59.7201 12.9738 58.5016 12.0086C55.8158 9.88151 52.4613 8.05489 49.3503 6.65481C41.2773 3.02174 31.6291 1.53731 22.7285 2.12467C12.2758 2.81482 -1.38681 11.2175 2.76197 23.54C3.90411 26.9332 7.34872 30.1406 9.83311 32.6003C14.3848 37.1063 20.0959 38.5042 25.6402 41.249C33.0672 44.9255 40.2532 48.8499 47.2706 53.192C51.9745 56.1028 57.4931 57.5473 61.4133 61.4286" stroke="#A20000" stroke-width="3" stroke-miterlimit="10" stroke-linecap="round" stroke-linejoin="round"/>
</svg>
