<svg width="137" height="66" viewBox="0 0 137 66" fill="none" xmlns="http://www.w3.org/2000/svg">
<path d="M60.813 14.1914C60.813 11.7499 75.1755 7.13734 77.5404 6.40654C93.1968 1.56804 110.604 -2.65636 125.682 5.99656C136.66 12.2967 140.572 26.0757 128.946 33.8592C125.97 35.8523 123.191 36.334 119.971 37.5469C108.691 41.7953 97.4017 45.9957 86.1082 50.2494C78.3851 53.1577 70.6786 56.768 63.261 60.4928C60.4056 61.9269 57.7587 63.9737 54.6932 65M60.8295 13.8914C59.5268 14.5363 58.7201 11.9738 57.5016 11.0086C54.8158 8.88151 51.4613 7.05489 48.3503 5.65481C40.2773 2.02174 30.6291 0.537315 21.7285 1.12467C11.2758 1.81482 -2.38681 10.2175 1.76197 22.54C2.90411 25.9332 6.34872 29.1406 8.83311 31.6003C13.3848 36.1063 19.0959 37.5042 24.6402 40.249C32.0672 43.9255 39.2532 47.8499 46.2706 52.192C50.9745 55.1028 56.4931 56.5473 60.4133 60.4286" stroke="#A20000" stroke-width="2" stroke-miterlimit="10" stroke-linecap="round" stroke-linejoin="round"/>
</svg>
