<svg width="295" height="426" viewBox="0 0 295 426" fill="none" xmlns="http://www.w3.org/2000/svg">
<path d="M227.876 9.92167C227.876 3.28658 237.472 -2.22179 239.959 6.50241C241.453 11.7135 236.776 16.8618 235.235 21.4939C234.711 23.0509 234.383 24.3264 234.18 25.9617C234.086 26.7441 233.624 28.8801 234.18 28.3246C234.266 28.2385 233.225 20.4219 233.655 19.1231C234.555 16.4236 240.053 8.27065 238.645 5.45387C237.488 3.13785 232.162 3.77945 230.762 5.45387C229.448 7.0344 229.205 8.76357 228.924 10.7118C228.853 11.2283 229.299 12.6601 228.924 12.2924C227.031 10.3911 232.349 0.641856 236.017 3.09089C237.613 4.14718 238.004 6.36932 238.387 8.08286C240.186 16.2046 235.767 21.7208 233.39 28.8488" stroke="#A20000" stroke-width="2.33287" stroke-miterlimit="10" stroke-linecap="round" stroke-linejoin="round"/>
<path d="M232.607 29.3811C230.199 29.3811 223.621 36.3995 222.096 38.3165C215.793 46.1878 207.339 51.4146 198.705 56.4535C193.496 59.4972 187.802 61.3124 183.462 65.655C182.07 67.0555 181.147 68.7691 179.786 70.1305C179.387 70.5217 179.129 71.046 178.738 71.445C178.597 71.5781 178.011 71.7032 178.206 71.7032C179.849 71.7032 186.011 66.4139 187.669 65.3967C192.268 62.5643 197 59.9666 201.332 56.7195C205.939 53.2689 209.935 49.1376 214.737 45.9375C217.451 44.13 219.586 40.3196 222.62 39.1068C223.707 38.6686 225.639 39.7328 226.82 39.631C232.654 39.1459 238.113 38.3165 243.9 38.3165" stroke="#A20000" stroke-width="2.33287" stroke-miterlimit="10" stroke-linecap="round" stroke-linejoin="round"/>
<path d="M233.656 29.115C236.12 29.115 242.47 31.2433 243.643 33.5828C244.05 34.4043 244.871 35.664 245.481 36.4778C245.833 36.9472 246.795 38.3165 246.271 38.0505C244.574 37.2054 243.659 34.3887 242.329 33.0585C239.874 30.6095 234.391 29.0837 231.028 30.4295C229.503 31.0398 223.411 37.1976 226.821 38.0505C227.274 38.1678 232.131 37.9331 231.818 37.002C231.357 35.6328 225.914 36.8925 224.983 37.268C224.803 37.3385 224.459 37.3306 224.459 37.5262C224.459 37.7375 230.231 37.3072 230.504 37.268C231.623 37.1037 235.729 37.2993 236.55 36.4778C236.73 36.29 236.018 36.4778 235.76 36.4778C234.618 36.4778 233.484 36.4778 232.342 36.4778C230.567 36.4778 228.854 36.2118 227.087 36.2118C226.821 36.2118 226.297 36.2118 226.297 36.2118C226.297 36.2118 228.925 36.5482 230.239 36.7359C231.959 36.9863 233.758 37.1742 235.494 37.002C236.081 36.9394 237.262 36.7673 237.074 36.2118C236.925 35.7814 233.578 35.0615 233.132 34.8972C232.428 34.6468 231.732 34.3652 231.028 34.107C224.185 31.6657 237.707 37.2759 238.912 36.4778M238.912 36.4778C239.788 35.8909 237.723 34.639 236.808 34.107C235.166 33.1446 233.359 32.7221 231.552 32.2682C231.365 32.2213 230.966 31.8223 231.028 32.0101C231.826 34.3965 236.769 36.0005 238.912 36.4778ZM238.912 36.4778C239.17 36.5325 239.6 36.7203 239.702 36.4778C240.531 34.3965 236.464 32.4795 235.236 32.0101C234.383 31.6814 232.827 30.3278 232.608 31.2198C232.209 32.8082 240.554 36.6734 241.016 36.2118C242.556 34.6704 238.896 31.9396 237.864 31.478C237.355 31.2589 236.284 30.3983 236.284 30.9538C236.284 33.395 240.937 35.7579 242.853 36.4778C243.104 36.5717 243.542 36.7203 243.643 36.4778C244.402 34.5764 240.351 30.4373 238.388 31.744C236.534 32.9802 246.459 38.6842 245.481 36.7359C244.394 34.5686 235.299 30.9459 236.284 34.8972" stroke="#A20000" stroke-width="2.33287" stroke-miterlimit="10" stroke-linecap="round" stroke-linejoin="round"/>
<path d="M240.49 33.5828C242.203 34.4434 244.526 34.7016 246.004 35.6875C250.462 38.6607 253.003 45.1472 257.829 48.0422C265.282 52.5178 272.751 56.4691 280.165 60.929C282.433 62.2826 285.561 63.5345 287.258 65.6549C289.675 68.6752 291.309 71.9144 293.045 75.3884" stroke="#A20000" stroke-width="2.33287" stroke-miterlimit="10" stroke-linecap="round" stroke-linejoin="round"/>
<path d="M182.68 66.9695C179.458 68.5813 176.893 73.362 176.893 76.9612" stroke="#A20000" stroke-width="2.33287" stroke-miterlimit="10" stroke-linecap="round" stroke-linejoin="round"/>
<path d="M178.997 71.9692C179.975 71.9692 180.905 72.5952 181.891 72.7595C188.57 73.8706 196.382 72.7595 203.171 72.7595C214.839 72.7595 226.32 72.071 237.863 70.913C242.564 70.4435 247.366 70.9755 252.05 70.3887C264.313 68.8551 277.123 71.9692 289.363 71.9692" stroke="#A20000" stroke-width="2.33287" stroke-miterlimit="10" stroke-linecap="round" stroke-linejoin="round"/>
<path d="M199.494 53.5659C192.135 53.5659 201.95 69.2617 203.436 72.2272C204.179 73.7138 204.719 75.263 205.54 76.7027C205.774 77.1096 206.4 78.3458 206.064 78.0171C205.109 77.0626 204.539 74.9578 203.96 73.8076C201.817 69.512 199.494 65.6468 198.446 60.9287M198.446 60.9287C198.11 59.4108 195.693 56.3828 197.656 55.4047C197.914 55.2795 199.471 54.857 199.76 55.1386C200.339 55.7255 198.564 56.4297 198.446 57.2434C198.29 58.3154 198.36 59.8724 198.446 60.9287ZM198.446 60.9287C198.728 64.6531 200.925 67.8454 202.388 71.1786C202.92 72.3992 203.467 73.6199 203.96 74.8562C204.171 75.3726 204.241 76.9295 204.484 76.4366C205.078 75.2551 203.256 72.3053 202.912 71.1786C201.739 67.376 200.097 63.855 198.704 60.1384C198.188 58.7457 198.18 57.8459 198.18 56.4532C198.18 56.015 197.813 54.8961 198.18 55.1386C198.963 55.6629 199.252 57.6425 199.494 58.2997C201.152 62.7283 202.544 72.6497 205.798 75.9124" stroke="#A20000" stroke-width="2.33287" stroke-miterlimit="10" stroke-linecap="round" stroke-linejoin="round"/>
<path d="M269.131 55.6707C269.131 54.7631 272.173 51.4925 272.548 52.2514C274.3 55.7568 267.535 67.8063 266.237 71.7029C265.518 73.8702 264.986 76.155 264.141 78.2754C263.922 78.8231 263.609 79.3317 263.351 79.8559C263.265 80.0281 263.148 80.5679 263.085 80.3801C262.327 78.0954 266.839 70.3649 267.817 68.2836C269.193 65.3573 269.85 62.3292 270.968 59.3481C271.219 58.6831 271.758 57.705 271.758 56.9851C271.758 56.9069 270.976 55.1308 270.968 55.1386C269.592 56.5157 269.647 59.4733 269.131 61.1868C267.715 65.9049 265.995 76.2957 260.981 78.7996" stroke="#A20000" stroke-width="2.33287" stroke-miterlimit="10" stroke-linecap="round" stroke-linejoin="round"/>
<path d="M204.749 79.0654C206.579 82.7194 206.798 87.015 207.901 90.8959C212.319 106.373 211.318 123.406 211.318 139.266C211.318 139.618 211.318 138.57 211.318 138.218C211.318 137.514 211.318 136.817 211.318 136.113C211.318 134.188 211.318 132.256 211.318 130.331C211.318 126.364 211.318 122.459 211.053 118.5C210.403 108.689 209.441 98.5637 206.853 89.0571C206.188 86.6315 205.68 84.2764 204.749 81.9604C204.647 81.7022 204.288 81.3658 204.483 81.1701C204.663 80.9902 204.905 81.4753 205.015 81.6944C205.672 83.0089 206.024 84.4643 206.329 85.9039C206.54 86.9289 207.283 92.9772 207.377 93.7909C208.558 103.83 208.151 113.681 208.425 123.758C208.472 125.339 208.605 126.912 208.691 128.492C208.777 129.979 208.808 131.473 208.957 132.96C208.957 132.976 209.23 139.517 211.053 137.694" stroke="#A20000" stroke-width="2.33287" stroke-miterlimit="10" stroke-linecap="round" stroke-linejoin="round"/>
<path d="M203.96 76.4365C202.302 79.7697 214.26 84.167 216.309 84.8477C222.331 86.8586 233.319 91.0056 239.701 90.3718C242.821 90.0588 245.074 88.7366 247.842 87.4768C250.603 86.2249 253.442 84.7382 256.257 83.7993C257.219 83.4785 258.165 83.0717 259.143 82.743C259.589 82.5944 260.793 82.5552 260.457 82.2188C259.831 81.5928 253.371 84.8635 252.573 85.1138C247.701 86.6631 242.188 87.7819 237.073 88.001C233.264 88.1731 230.175 86.9682 226.562 86.1623C224.341 85.6693 221.963 85.7945 219.727 85.372C216.645 84.793 213.595 83.2986 210.53 82.4849C208.371 81.9059 205.399 79.8559 203.17 79.8559C202.466 79.8559 204.39 80.5679 205.016 80.9043C206.658 81.8041 206.572 81.7258 208.426 82.2188C212.391 83.2751 216.458 83.1186 220.516 83.2751C229.401 83.6116 238.989 86.2171 247.842 85.1138C250.963 84.7226 254.052 83.3534 257.039 82.4849C259.565 81.7494 262.131 81.0686 264.664 80.38C265.009 80.2862 265.712 80.4818 265.712 80.114C265.712 79.7698 265.009 80.0515 264.664 80.114C262.185 80.5679 260.105 82.031 257.829 83.009C252.902 85.1216 247.381 85.8415 242.062 86.1623C234.594 86.6161 227.164 84.1045 219.727 83.5333C219.343 83.502 215.683 82.4301 215.527 82.743C215.152 83.4863 218.272 84.793 218.413 84.8477C221.572 86.1153 224.505 86.1623 227.876 86.1623C239.474 86.1623 250.548 82.4849 262.037 82.4849" stroke="#A20000" stroke-width="2.33287" stroke-miterlimit="10" stroke-linecap="round" stroke-linejoin="round"/>
<path d="M264.922 82.4846C264.922 88.6659 263.045 95.074 262.036 101.146C260.816 108.462 260.456 116.098 260.456 123.492C260.456 128.069 261.45 132.616 261.77 137.169M261.77 137.169C261.872 138.586 262.099 139.978 262.294 141.371C262.365 141.817 262.247 143.006 262.56 142.685C263.061 142.193 261.95 138.492 261.77 137.169ZM261.77 137.169C261.559 135.589 261.364 134.016 261.246 132.436C260.574 123.015 259.307 112.695 259.932 103.25C260.253 98.415 261.809 93.5796 262.56 88.791C262.865 86.8506 262.826 87.1401 262.826 85.6378C262.826 85.1918 262.67 83.893 262.56 84.3233C261.387 89.0336 262.302 95.0036 262.036 99.8312C261.52 109.056 260.456 118.187 260.456 127.436C260.456 133.367 261.629 140.769 260.456 146.629C260.245 147.709 253.527 147.2 252.573 147.419C249.39 148.155 245.933 149.438 242.586 149C235.211 148.014 228.219 144.72 220.516 145.581C217.865 145.87 214.963 146.512 212.367 147.153C211.585 147.349 210.803 147.552 210.005 147.685C209.81 147.717 209.395 147.771 209.481 147.943C209.763 148.507 221.275 147.153 222.62 147.153C222.815 147.153 226.671 147.2 226.562 147.419C226.264 148.006 222.682 147.701 222.354 147.685C218.952 147.458 211.843 148.202 209.215 145.581C208.519 144.884 211.17 139.36 211.319 138.484C212.265 132.795 211.749 126.825 211.319 121.129C210.834 114.643 210.819 108.109 209.739 101.678C209.293 98.9784 208.957 96.5137 208.957 93.7908C208.957 93.1649 209.246 91.6704 208.691 91.9443C207.956 92.312 208.417 98.3681 208.425 98.5168C208.527 100.019 208.793 101.498 208.957 102.992C210.248 114.987 211.053 127.459 211.053 139.532C211.053 140.236 210.881 138.132 210.795 137.427C210.646 136.254 210.302 132.31 210.271 131.379C210.154 127.968 210.208 124.541 210.005 121.129C209.489 112.507 208.543 103.97 207.901 95.3635C207.682 92.3746 207.377 89.4248 207.377 86.428C207.377 85.2857 207.377 83.0088 207.377 83.0088C207.377 83.0088 207.542 85.3326 207.901 86.428C208.05 86.874 208.762 88.0712 208.425 87.7426C208.12 87.4296 207.338 86.5142 207.377 86.9523C207.456 87.8443 207.706 88.705 207.901 89.5813C208.238 91.0758 208.597 92.5624 208.957 94.049C209.473 96.2398 210.005 98.4307 210.529 100.622" stroke="#A20000" stroke-width="2.33287" stroke-miterlimit="10" stroke-linecap="round" stroke-linejoin="round"/>
<path d="M211.844 134.541C210.639 136.34 211.429 139.149 211.844 141.113C212.266 143.093 212.798 146.175 213.682 147.944C214.417 149.407 217.545 149.916 218.937 149.783C224.74 149.258 230.183 149.258 236.018 149.258C238.575 149.258 240.882 148.828 243.377 148.468C243.643 148.437 244.167 148.734 244.167 148.468C244.167 148.351 242.04 147.826 239.435 147.944C233.812 148.202 228.471 150.26 222.879 150.839C221.753 150.956 220.603 150.839 219.469 150.839C219.031 150.839 217.764 151.034 218.155 150.839C220.924 149.454 229.894 149.485 233.132 149.258C239.451 148.82 245.786 149.704 252.05 149.258C254.005 149.117 255.687 148.178 257.571 147.944C259.996 147.639 262.483 148.21 264.923 148.21" stroke="#A20000" stroke-width="2.33287" stroke-miterlimit="10" stroke-linecap="round" stroke-linejoin="round"/>
<path d="M208.474 149.963C209.092 148.108 208.513 149.533 209.592 147.733C209.874 147.263 210.484 145.714 210.335 146.246C207.364 156.653 203.078 166.457 200.677 177.082C196.368 196.197 191.581 214.944 191.018 234.678C190.056 268.495 192.387 302.382 194.733 336.105C196.571 362.403 199.519 388.99 191.018 414.498" stroke="#A20000" stroke-width="2.33287" stroke-miterlimit="10" stroke-linecap="round" stroke-linejoin="round"/>
<path d="M215.527 148.108C215.409 147.858 215.284 147.608 215.159 147.365" stroke="#A20000" stroke-width="2.33287" stroke-miterlimit="10" stroke-linecap="round" stroke-linejoin="round"/>
<path d="M214.04 144.759C207.737 144.759 204.749 154.766 202.904 159.25C198.337 170.345 195.107 182.027 192.878 193.802C187.716 221.102 185.761 252.978 187.677 280.747C189.444 306.364 193.245 332.302 193.245 358.021" stroke="#A20000" stroke-width="2.33287" stroke-miterlimit="10" stroke-linecap="round" stroke-linejoin="round"/>
<path d="M188.42 321.239C186.558 326.825 190.023 335.651 190.649 341.301C192.056 353.992 192.838 367.176 192.502 379.945C192.33 386.635 191.955 393.082 190.649 399.631C190.171 402.018 189.507 404.365 188.795 406.697C188.607 407.299 188.506 409.177 188.42 408.551C187.896 404.874 188.42 401.118 188.42 397.409C188.42 388.474 188.271 379.898 189.53 371.025C189.999 367.755 190.961 364.57 191.759 361.37C191.853 361.01 191.759 359.884 191.759 360.251C191.759 371.988 190.273 383.764 190.273 395.547C190.273 400.257 190.109 404.96 190.273 409.67C190.328 411.032 190.476 412.393 190.649 413.754C190.727 414.38 190.867 416.227 191.016 415.609C191.681 412.964 191.016 410.163 191.016 407.44C191.016 400.359 190.805 393.333 190.649 386.26C190.32 371.378 190.523 356.543 189.53 341.676C188.373 324.267 185.823 307.139 185.823 289.66C185.823 274.324 185.526 258.73 188.42 243.59C189.186 239.576 190.32 235.64 191.391 231.704C191.939 229.701 192.651 227.745 193.245 225.758C193.362 225.382 193.675 224.255 193.62 224.639C192.565 232.017 190.281 239.169 189.163 246.563C187.121 260.036 186.535 273.502 185.448 287.062C185.252 289.542 184.932 292.015 184.705 294.487C184.611 295.52 184.814 302.922 183.594 304.15C183.313 304.424 183.25 303.431 183.219 303.039C183.125 301.678 183.219 300.309 183.219 298.947C183.219 293.994 183.008 289.034 183.219 284.089C183.743 272.031 185.753 259.997 187.309 248.049C190.641 222.339 195.896 197.699 202.161 172.63C204.092 164.892 205.336 154.744 210.701 148.476C211.546 147.498 210.036 150.98 209.59 152.193C209.043 153.664 208.503 155.135 208.104 156.653C207.385 159.352 206.908 162.114 206.243 164.821C204.538 171.801 202.794 178.772 200.675 185.634C200.018 187.763 199.181 189.836 198.446 191.949C198.188 192.684 197.453 194.922 197.703 194.179C199.76 187.997 201.113 182.106 201.785 175.603C202.059 172.998 203.162 170.33 202.528 167.795C202.426 167.364 201.91 168.483 201.785 168.914C201.16 171.104 200.776 173.366 200.307 175.603C199.541 179.187 198.774 182.771 198.078 186.378C197.038 191.69 196.092 197.027 195.106 202.347" stroke="#A20000" stroke-width="2.33287" stroke-miterlimit="10" stroke-linecap="round" stroke-linejoin="round"/>
<path d="M184.338 274.425C182.367 284.253 184.486 295.809 185.081 305.637C186.207 324.267 188.67 342.74 189.531 361.37C189.867 368.451 190.712 375.462 191.017 382.543C191.056 383.411 191.462 384.405 191.017 385.148C190.79 385.532 190.086 384.812 189.906 384.405C188.944 382.261 188.42 379.945 187.677 377.715" stroke="#A20000" stroke-width="2.33287" stroke-miterlimit="10" stroke-linecap="round" stroke-linejoin="round"/>
<path d="M185.823 351.706C186.128 345.862 186.097 340.721 187.309 334.986C187.364 334.72 187.426 334.117 187.677 334.242C188.764 334.79 188.733 342.615 188.795 343.162C189.006 345.15 189.35 347.114 189.53 349.109C190.977 364.945 192.932 380.79 193.988 396.665C194.144 398.919 195.615 412.197 193.245 413.378" stroke="#A20000" stroke-width="2.33287" stroke-miterlimit="10" stroke-linecap="round" stroke-linejoin="round"/>
<path d="M192.134 414.498C190.523 409.654 209.434 415.781 211.819 415.984C217.7 416.469 215.596 408.442 217.755 408.927C224.379 410.398 229.259 416.908 235.954 418.582C241.444 419.959 247.677 418.637 253.409 420.069C256.976 420.961 263.467 423.496 266.032 420.069" stroke="#A20000" stroke-width="2.33287" stroke-miterlimit="10" stroke-linecap="round" stroke-linejoin="round"/>
<path d="M263.435 153.679C263.435 152.192 263.435 150.706 263.435 149.219C263.435 148.851 263.06 148.108 263.435 148.108C264.882 148.108 264.475 150.815 264.921 152.192C265.586 154.282 266.243 156.378 266.775 158.507C267.604 161.832 268.253 165.197 269.004 168.538C272.343 183.443 275.714 198.356 279.405 213.121" stroke="#A20000" stroke-width="2.33287" stroke-miterlimit="10" stroke-linecap="round" stroke-linejoin="round"/>
<path d="M261.95 152.192C261.95 154.868 263.452 156.864 264.547 159.25C267.034 164.672 269.247 170.228 270.866 175.971C275.175 191.307 278.812 207.362 280.892 223.152C283.449 242.611 281.345 261.804 279.03 281.115C277.404 294.722 277.177 308.672 277.177 322.357C277.177 341.003 278.843 359.359 282.378 377.715C283.832 385.281 285.217 392.839 286.828 400.374C287.18 401.994 288.103 407.275 285.717 404.091" stroke="#A20000" stroke-width="2.33287" stroke-miterlimit="10" stroke-linecap="round" stroke-linejoin="round"/>
<path d="M259.721 164.085C261.403 165.76 260.253 157.208 260.089 155.909C259.987 155.04 259.807 154.18 259.721 153.303C259.682 152.936 259.455 151.926 259.721 152.192C263.702 156.175 264.828 166.018 266.032 171.143C268.293 180.751 269.997 190.454 271.976 200.117C274.674 213.301 281.854 226.352 282.378 239.872C282.949 254.786 281.995 269.644 280.516 284.456C279.367 296.005 276.817 307.366 276.434 319.008C275.933 334.015 277.795 348.303 281.259 362.856C283.613 372.746 287.297 382.777 288.314 392.949C288.595 395.711 288.47 412.713 285.342 411.148" stroke="#A20000" stroke-width="2.33287" stroke-miterlimit="10" stroke-linecap="round" stroke-linejoin="round"/>
<path d="M262.692 419.701C264.327 422.964 267.08 420.053 268.261 417.839C270.052 414.474 273.657 400.109 279.405 402.98C283.871 405.21 284.035 411.329 287.202 414.498C287.523 414.818 289.306 408.473 285.717 408.927C282.33 409.349 273.657 417.369 270.865 419.701C269.715 420.655 268.574 421.618 267.518 422.666C267.049 423.144 266.306 424.998 266.775 424.528C271.436 419.865 272.515 412.753 277.544 408.183C277.771 407.972 281.681 404.256 282.002 404.467C284.52 406.141 280.727 420.233 275.69 418.214C272.312 416.861 282.721 409.568 283.112 408.927C286.671 403.144 284.598 394.084 284.598 387.746C284.598 377.707 285.099 367.176 283.112 357.278C280.57 344.555 277.309 332.482 276.801 319.384C275.456 284.37 285.998 248.589 278.287 213.865C276.746 206.909 274.228 198.74 271.233 192.316C267.424 184.163 262.051 175.674 260.463 166.684C259.674 162.224 259.682 157.654 258.235 153.304C258.149 153.046 257.671 152.764 257.867 152.56C258.618 151.809 259.29 154.188 259.721 155.166C260.377 156.637 261.113 158.084 261.574 159.626C263.388 165.674 263.819 172.27 267.15 177.825C267.643 178.655 268.456 179.993 269.379 179.688C270.881 179.187 269.035 172.051 269.004 171.887C268.394 168.679 264.554 146.426 259.353 152.936" stroke="#A20000" stroke-width="2.33287" stroke-miterlimit="10" stroke-linecap="round" stroke-linejoin="round"/>
<path d="M212.188 150.339C206.799 156.802 204.516 164.712 202.162 172.63C198.118 186.206 194.607 199.1 192.503 213.122C190.532 226.306 188.022 239.529 187.678 252.877C186.872 284.386 192.167 315.457 193.246 346.88C193.629 357.873 191.565 368.631 191.017 379.57C190.861 382.692 191.533 386.15 191.017 389.233C190.384 393.051 188.554 402.128 190.274 405.578C190.399 405.828 190.751 406.016 191.017 405.954C193.223 405.398 199.636 397.183 202.905 399.632C205.087 401.275 191.713 409.936 196.218 412.636C200.981 415.499 209.482 409.999 214.417 409.67C217.178 409.482 217.443 409.561 219.985 410.414C220.619 410.617 221.205 410.969 221.847 411.149C222.081 411.219 222.808 411.266 222.589 411.149C220.337 410.03 216.474 410.781 214.041 410.781C213.299 410.781 211.077 410.781 211.82 410.781C221.541 410.781 223.215 387.559 222.214 379.57C221.197 371.417 218.992 363.538 217.756 355.424C215.77 342.365 215.59 328.477 216.27 315.3C217.076 299.808 220.345 283.643 218.132 268.111C218.061 267.618 218.132 269.105 218.132 269.598C218.132 270.467 218.132 271.335 218.132 272.196C218.132 274.676 218.132 277.156 218.132 279.629C218.132 287.383 217.889 294.902 217.389 302.664C216.231 320.652 214.894 338.492 215.16 356.535C215.269 364.351 215.848 372.168 216.646 379.945C216.896 382.418 217.138 384.898 217.389 387.371C217.514 388.615 217.553 389.859 217.756 391.087C217.803 391.361 217.967 392.058 218.132 391.831C219.227 390.375 218.875 387.785 218.875 386.26C218.875 385.516 218.875 384.773 218.875 384.03C218.875 383.662 218.734 382.574 218.875 382.919C220.423 386.792 221.338 393.529 219.618 397.409C217.881 401.306 213.134 401.298 215.16 406.697C216.317 409.796 225.178 409.029 227.415 407.808C228.705 407.104 229.049 406.024 229.644 404.835C229.769 404.592 230.277 404.005 230.011 404.091C228.901 404.467 227.907 406.087 227.039 406.697C221.088 410.86 216.302 412.276 228.158 415.241C235.267 417.017 242.126 416.751 248.953 418.215C251.479 418.754 253.857 420.022 256.383 420.444C261.709 421.329 254.881 412.401 253.778 411.525C253.567 411.352 253.231 410.953 253.035 411.149C251.581 412.612 253.622 417.002 254.154 418.582C254.435 419.427 255.178 421.579 255.64 420.812C257.423 417.831 255.358 410.813 254.897 408.184C253.771 401.744 252.488 395.328 251.55 388.857C249.328 373.545 250.799 358.89 251.182 343.531C251.307 338.594 250.204 332.436 251.182 327.561C251.237 327.287 251.55 328.023 251.55 328.304C251.55 329.548 251.284 330.777 251.182 332.013C250.853 335.964 250.916 339.939 250.807 343.906C250.65 349.72 250.908 358.162 248.578 363.6C248.288 364.289 248.249 362.121 248.21 361.37C248.124 359.884 248.101 358.389 248.21 356.91C248.351 354.915 248.711 352.943 248.953 350.964C249.759 344.329 250.791 337.569 251.182 330.902C251.307 328.797 251.182 326.693 251.182 324.588C251.182 323.226 251.182 319.134 251.182 320.496C251.182 327.663 250.986 334.908 250.439 342.044C250.329 343.413 250.149 344.767 250.063 346.136C250.024 346.88 249.884 349.086 250.063 348.366C251.94 340.863 251.01 331.755 250.063 324.212C249.852 322.475 249.626 320.738 249.321 319.009C249.258 318.626 249.125 317.546 248.953 317.898C247.678 320.457 249.43 323.594 249.696 326.442C249.985 329.533 250.196 332.631 250.439 335.73C251.088 344.149 251.925 352.544 251.925 360.995" stroke="#A20000" stroke-width="2.33287" stroke-miterlimit="10" stroke-linecap="round" stroke-linejoin="round"/>
<path d="M240.412 183.771C240.412 194.569 239.677 205.289 240.412 216.094C240.553 218.215 240.834 220.319 241.155 222.416C241.366 223.778 242.031 227.103 243.008 226.125C244.44 224.693 240.037 210.155 239.294 207.925C239.051 207.182 239.333 205.695 238.551 205.695C237.8 205.695 238.785 207.182 238.926 207.925C239.278 209.78 239.693 211.634 240.037 213.496C240.874 217.956 241.695 222.424 242.641 226.868C243.22 229.607 243.994 232.298 244.495 235.045C244.565 235.413 244.495 236.531 244.495 236.156C244.495 229.888 243.681 223.832 243.384 217.581C243.345 216.837 243.149 216.055 243.384 215.351C243.509 214.983 243.673 216.086 243.752 216.47C244.041 217.823 244.283 219.185 244.495 220.554C244.784 222.408 245.112 224.255 245.237 226.125C245.402 228.449 245.183 234.693 244.87 236.899C244.581 238.926 242.273 248.065 240.037 241.359" stroke="#A20000" stroke-width="2.33287" stroke-miterlimit="10" stroke-linecap="round" stroke-linejoin="round"/>
<path d="M218.132 151.449C213.659 149.212 211.148 164.524 210.335 167.795C210.264 168.068 210.601 167.309 210.702 167.051C211.226 165.698 211.711 164.336 212.188 162.967C213.275 159.853 214.143 156.895 214.785 153.679C214.863 153.296 215.551 152.56 215.16 152.56C213.721 152.56 212.243 158.288 211.821 159.25C211.594 159.759 211.179 161.285 211.078 160.737C210.812 159.446 211.852 155.69 212.188 154.423C212.423 153.554 212.751 152.709 212.931 151.825C213.002 151.457 213.26 150.542 212.931 150.706C211.211 151.567 211.641 154.368 211.445 156.277C210.718 163.335 211.516 169.391 214.042 175.971" stroke="#A20000" stroke-width="2.33287" stroke-miterlimit="10" stroke-linecap="round" stroke-linejoin="round"/>
<path d="M233.358 158.507C232.772 158.217 231.278 157.544 230.754 157.02C230.558 156.825 230.3 156.019 230.386 156.277C231.458 159.493 231.677 162.513 231.497 165.94C231.442 166.934 231.293 167.927 231.129 168.913C231.043 169.414 231.113 170.76 230.754 170.4C230.543 170.189 231.059 160.909 231.129 159.993C231.207 158.875 231.497 156.652 231.497 156.652C231.497 156.652 231.215 159.375 231.129 160.737C231.027 162.2 230.206 167.427 232.615 167.427" stroke="#A20000" stroke-width="2.33287" stroke-miterlimit="10" stroke-linecap="round" stroke-linejoin="round"/>
<path d="M248.577 157.02C248.577 156.144 248.335 153.804 248.953 154.422C250.204 155.674 249.633 157.904 250.063 159.626C251.275 164.461 252.3 169.477 254.153 174.117C254.357 174.625 254.372 175.775 254.896 175.603C255.78 175.306 254.928 171.62 254.896 171.511C253.395 166.629 250.798 162.153 248.953 157.396C248.671 156.66 248.483 155.901 248.21 155.166C248.116 154.908 247.592 154.297 247.834 154.422C251.815 156.41 251.502 164.985 255.639 167.051C256.765 167.622 256.476 164.594 256.382 163.342C256.109 159.814 254.709 156.183 253.41 152.936C253.137 152.263 252.065 150.393 252.292 151.081C252.769 152.498 253.614 153.765 254.153 155.166C254.771 156.778 254.286 159.993 256.007 159.993C256.906 159.993 255.764 158.147 255.264 157.396C249.383 148.562 230.105 153.499 222.589 156.652C221.056 157.294 219.656 158.233 218.131 158.882C217.099 159.313 214.37 160.291 214.784 159.25C215.316 157.92 219.038 156.183 219.617 155.909C224.161 153.742 228.713 152.795 233.726 152.56C235.579 152.482 237.534 153.155 239.294 152.56C239.56 152.474 238.833 152.193 238.551 152.193C237.558 152.193 236.565 152.38 235.587 152.56C233.96 152.873 232.341 153.21 230.754 153.679C225.389 155.268 220.579 158.194 215.159 159.626C214.072 159.907 211.46 161.058 211.82 159.993C212.539 157.826 217.036 154.297 218.499 152.56C219.124 151.825 219.719 151.058 220.36 150.338C220.704 149.939 221.995 149.219 221.471 149.219C219.187 149.219 215.629 156.347 215.159 157.396C211.531 165.486 209.263 175.994 210.334 184.891C210.553 186.714 210.483 189.405 212.187 190.086C213.501 190.61 213.298 187.418 213.298 186.002C213.298 180.282 213.556 174.586 214.416 168.913C214.698 167.035 215.136 165.189 215.527 163.342C215.636 162.842 216.059 161.371 215.902 161.856C212.711 171.417 212.93 181.62 212.93 191.573C212.93 196.252 213.267 196.377 212.187 200.493C211.89 201.627 211.398 202.707 211.077 203.834C210.897 204.444 211.054 206.22 210.702 205.696C208.919 203.02 211.351 189.178 211.82 185.634C211.961 184.515 211.069 182.285 212.187 182.285C213.298 182.285 212.328 184.523 212.187 185.634C211.953 187.512 211.437 189.343 211.077 191.205C210.068 196.385 209.059 201.557 208.473 206.807" stroke="#A20000" stroke-width="2.33287" stroke-miterlimit="10" stroke-linecap="round" stroke-linejoin="round"/>
<path d="M234.101 155.533C231.669 156.754 232.506 164.132 232.615 166.308C232.662 167.309 232.897 168.287 232.983 169.281C233.014 169.656 232.725 170.658 232.983 170.4C234.266 169.109 233.483 163.35 232.983 161.856C232.764 161.19 231.888 159.782 231.497 160.369C230.496 161.879 230.41 167.395 230.386 168.17C230.16 175.587 231.669 184.374 229.268 191.573C229.073 192.159 229.229 190.336 229.268 189.718C229.354 188.599 229.526 187.488 229.644 186.377C230.089 182.136 230.426 177.95 231.129 173.741C231.356 172.379 231.599 171.01 231.872 169.656C231.966 169.156 232.083 167.685 232.24 168.17C234.383 174.594 230.754 183.114 230.754 189.718" stroke="#A20000" stroke-width="2.33287" stroke-miterlimit="10" stroke-linecap="round" stroke-linejoin="round"/>
<path d="M253.409 158.139C252.846 157.576 251.548 155.854 251.548 156.652C251.548 160.322 253.034 163.835 253.777 167.427C255.607 176.19 255.935 178.498 258.61 186.745C259.142 188.388 259.728 190.016 260.463 191.573C260.729 192.136 261.026 193.341 261.574 193.059C263.349 192.175 261.597 189.061 261.206 187.121C260.831 185.258 260.495 183.396 260.088 181.542C258.446 174.015 257.593 166.425 256.006 158.882C255.333 155.674 254.613 152.466 254.152 149.219C254.074 148.719 253.878 147.232 253.777 147.733C252.353 154.869 259.016 168.984 261.574 175.603C262.16 177.098 262.849 178.561 263.435 180.055C263.717 180.791 263.623 182.841 264.178 182.285C264.882 181.581 263.474 175.783 263.435 175.603C262.137 169.884 260.088 163.671 260.088 157.764C260.088 157.49 260.354 158.256 260.463 158.507C260.729 159.125 260.987 159.735 261.206 160.369C261.73 161.84 262.247 163.327 262.692 164.821C263.24 166.668 263.631 168.553 264.178 170.4C266.188 177.246 268.441 183.889 270.122 190.829C271.225 195.383 273.125 209.232 276.058 212.753C277.043 213.927 277.27 209.827 277.176 208.293C277.114 207.3 276.957 206.306 276.801 205.32C276.668 204.46 276.191 201.877 276.433 202.722C277.771 207.425 277.935 212.401 278.662 217.213C280.868 231.798 281.853 246.273 281.259 261.053C280.563 278.455 277.364 296.099 275.69 313.438C274.439 326.34 271.53 340.651 273.829 353.561C274.979 359.969 276.965 366.69 279.03 372.887" stroke="#A20000" stroke-width="2.33287" stroke-miterlimit="10" stroke-linecap="round" stroke-linejoin="round"/>
<path d="M276.801 350.596C276.801 356.237 279.984 361.722 280.891 367.309C282.361 376.471 283.487 386.275 283.487 395.547" stroke="#A20000" stroke-width="2.33287" stroke-miterlimit="10" stroke-linecap="round" stroke-linejoin="round"/>
<path d="M211.077 89.4014C211.077 88.6502 211.077 83.314 211.077 87.1714C211.077 93.6735 211.914 100.035 212.563 106.49C212.657 107.484 212.227 108.759 212.931 109.463C213.541 110.081 212.978 107.734 212.931 106.865C212.86 105.621 212.751 104.377 212.563 103.149C211.812 98.4072 210.006 94.0334 208.848 89.4014C208.661 88.6737 208.661 87.9069 208.473 87.1714C208.41 86.9054 208.191 86.1699 208.105 86.4281C207.832 87.234 208.786 98.7515 210.334 97.2023C212.532 95.0036 209.521 88.1495 208.473 86.0603C208.152 85.4109 207.683 84.8476 207.362 84.1981C207.183 83.8539 206.893 82.7036 206.987 83.087C208.058 87.3748 211.124 91.4044 213.674 94.9723C214.237 95.7626 214.847 96.5215 215.527 97.2023C215.848 97.5231 216.395 98.3212 216.645 97.9456C217.349 96.8894 210.858 89.151 209.959 87.9147C209.536 87.3357 208.332 85.5518 208.848 86.0603C211.015 88.2277 213.556 95.7156 217.388 95.7156C218.561 95.7156 216.997 93.3058 216.27 92.3747C214.55 90.1604 212.407 89.0415 210.334 87.1714C209.81 86.702 208.348 85.1919 208.848 85.6848C210.24 87.0775 219.899 96.8659 221.846 96.0913C222.769 95.7235 221.142 94.1038 220.36 93.4935C218.999 92.4372 209.591 86.5768 209.591 86.0603C209.591 85.7787 210.1 86.2794 210.334 86.4281C211.218 87.0227 212.063 87.6721 212.931 88.2903C214.166 89.1588 215.363 90.0821 216.645 90.888C218.225 91.8895 224.482 95.6922 226.672 94.2291C226.875 94.096 226.734 93.7282 226.672 93.4935C225.952 90.622 219.031 88.1808 216.645 87.547C215.558 87.2575 213.298 86.0526 213.298 87.1714C213.298 88.392 224.779 91.7174 226.296 92.0069C227.282 92.1868 228.275 92.2886 229.268 92.3747C229.761 92.4138 230.879 92.852 230.754 92.3747C230.089 89.7222 222.331 88.5328 220.36 87.9147C219.383 87.6096 218.389 87.3592 217.388 87.1714C217.021 87.1088 215.965 86.968 216.27 87.1714C222.386 91.2558 231.129 91.6078 238.184 92.0069C239.427 92.0695 241.899 93.6188 241.899 92.3747C241.899 91.115 230.879 89.1588 229.644 89.0337C229.276 88.9945 228.525 89.0337 228.525 89.0337C228.525 89.0337 231.779 89.3779 233.358 89.7769C234.61 90.0899 235.83 90.5359 237.065 90.888C240.506 91.8739 248.366 94.409 251.182 90.888C252.793 88.8693 241.523 86.6785 241.523 89.4014C241.523 95.1836 252.042 92.226 254.521 90.888C254.646 90.8254 258.666 88.9397 258.236 88.2903C256.695 85.9821 253.817 90.9427 254.521 92.0069C254.74 92.3277 255.327 91.866 255.64 91.6313C256.5 90.9819 258.353 88.8536 258.979 87.9147C259.284 87.4531 259.331 86.0368 259.722 86.4281C260.011 86.7254 256.445 97.2101 256.75 99.0645C256.969 100.363 258.713 97.2415 259.354 96.0913C260.168 94.6203 262.272 90.3482 262.694 88.6581C262.936 87.6879 263.179 85.1762 262.318 85.6848C259.347 87.4766 256.75 98.0316 256.007 101.294C255.624 103 254.028 105.254 255.264 106.49C256.21 107.444 257.047 104.416 257.493 103.149C258.087 101.467 260.395 89.9256 259.354 89.4014C257.884 88.6737 257.423 93.7596 256.75 96.8345C256.289 98.9471 255.702 101.028 255.264 103.149C254.834 105.246 254.505 107.358 254.153 109.463C253.786 111.677 251.823 114.565 253.411 116.153C253.77 116.513 253.645 115.159 253.778 114.666C254.021 113.798 254.287 112.937 254.521 112.069C254.537 112.006 255.217 109.792 254.897 109.463C254.138 108.712 253.825 111.349 253.035 112.069C252.253 112.781 251.338 113.36 250.439 113.923C248.476 115.151 245.613 116.646 243.384 117.272C242.422 117.538 241.406 117.64 240.413 117.64C240.131 117.64 239.474 117.467 239.67 117.272C242.313 114.627 251.002 117.068 253.035 115.042C253.215 114.862 252.535 114.987 252.292 115.042C251.416 115.238 250.556 115.527 249.696 115.785C248.452 116.145 247.224 116.544 245.981 116.896C242.509 117.89 239.208 118.751 235.587 118.751C235.337 118.751 236.08 118.751 236.322 118.751C237.065 118.751 237.808 118.751 238.551 118.751C241.883 118.751 245.316 118.336 248.577 117.64C249.5 117.444 252.026 116.943 251.182 116.529C247.741 114.807 244.503 116.849 241.156 117.64C237.98 118.383 236.213 117.773 236.698 118.007C239.318 119.322 243.846 119.15 246.724 119.87C247.373 120.034 247.967 120.347 248.577 120.613C248.836 120.722 249.516 121.176 249.32 120.981C247.678 119.33 245.136 118.117 243.009 117.272C242.751 117.162 242.422 116.669 242.266 116.896C240.616 119.384 246.755 126.09 249.696 124.329C251.26 123.383 250.298 119.103 249.696 118.007C249.391 117.467 248.922 117.037 248.577 116.529C248.429 116.294 248.257 115.511 248.21 115.785C247.96 117.287 249.274 127.686 251.549 126.927C252.535 126.599 252.668 117.17 252.668 115.785C252.668 115.159 252.566 117.029 252.668 117.64C252.965 119.424 253.7 122.303 254.521 123.954C254.678 124.267 255.022 124.948 255.264 124.697C257.384 122.577 256.75 117.624 256.75 115.042C256.75 114.173 256.75 113.305 256.75 112.436C256.75 111.943 256.476 110.543 256.75 110.95C257.118 111.497 258.205 122.788 259.354 121.356C260.919 119.392 261.646 114.831 261.208 112.436C261.028 111.458 260.168 108.947 259.722 109.839C258.58 112.131 259.354 116.255 259.354 118.751C259.354 119.494 259.354 120.237 259.354 120.981C259.354 121.231 259.354 121.974 259.354 121.724C259.354 118.845 259.722 116.067 259.722 113.18C259.722 112.194 259.8 111.2 259.722 110.206C259.675 109.58 259.8 107.906 259.354 108.352C256.445 111.263 259.362 125.621 254.521 128.046C253.121 128.742 251.033 125.237 249.696 124.697C245.238 122.913 240.835 124.697 236.322 124.697" stroke="#A20000" stroke-width="2.33287" stroke-miterlimit="10" stroke-linecap="round" stroke-linejoin="round"/>
<path d="M208.106 96.835C207.981 96.0917 207.801 95.3562 207.73 94.6051C207.676 93.987 207.535 92.1561 207.73 92.7507C208.684 95.6066 208.63 98.7129 209.216 101.663C210.608 108.611 212.157 115.637 214.042 122.468C214.464 123.978 214.917 125.488 215.527 126.928C215.668 127.248 216.059 127.953 216.27 127.671C217.686 125.785 216.646 122.969 216.646 120.613C216.646 114.197 216.943 107.68 216.27 101.295C215.856 97.3045 215.449 93.2828 214.417 89.4019C214.347 89.1358 213.776 88.7759 213.674 89.0341C209.318 100.372 211.242 115.496 211.445 127.303C211.539 132.632 211.656 137.968 212.188 143.273C212.243 143.781 212.368 145.237 212.563 144.759C215.058 138.516 214.042 125.691 214.042 119.127C214.042 115.786 214.104 112.437 214.042 109.096C213.987 105.747 213.744 102.406 213.674 99.065C213.627 96.835 213.674 94.6051 213.674 92.3752C213.674 92.0074 213.838 90.9276 213.674 91.2641C213.392 91.8274 213.33 92.4847 213.299 93.1184C213.205 95.7161 213.299 98.3216 213.299 100.919C213.299 104.886 213.244 108.846 213.299 112.812C213.369 117.022 213.478 121.231 213.674 125.441C213.877 129.752 213.424 139.705 217.013 144.016C218.046 145.252 218.624 141.152 218.875 139.564C219.696 134.275 220.134 128.931 220.361 123.587C220.728 114.628 219.438 106.029 218.132 97.2028C218.022 96.4594 218.179 95.6066 217.756 94.9728C217.545 94.652 217.451 95.7084 217.389 96.0918C217.084 97.8131 216.779 99.5422 216.646 101.295C216.403 104.503 216.333 107.734 216.27 110.95M216.27 110.95C216.098 121.044 216.13 124.87 217.389 135.104C217.741 137.968 218.226 140.832 218.875 143.648C219.242 145.268 220.517 149.665 221.104 148.108C222.324 144.838 221.925 141.176 222.214 137.702C223.098 127.115 223.731 116.373 223.333 105.747C223.223 102.891 222.785 100.059 222.59 97.2028C222.535 96.4673 222.965 94.339 222.59 94.9728C219.36 100.356 220.642 111.357 220.728 116.897C220.853 124.361 221.268 131.912 222.957 139.188C223.426 141.207 224.06 143.202 224.811 145.135C225.499 146.895 226.828 141.81 227.04 139.932C227.368 137.091 227.556 134.236 227.782 131.388C228.048 128.172 228.416 124.956 228.525 121.724C228.658 118.016 228.525 114.299 228.525 110.582C228.525 104.065 229.855 93.5488 226.672 87.1719C226.547 86.9294 225.984 87.2736 225.929 87.5475C225.585 89.2532 225.593 91.0059 225.554 92.7507C225.468 96.8351 225.554 100.919 225.554 105.011C225.554 115.598 225.429 123.446 225.929 133.985M216.27 110.95C216.787 105.168 216.184 98.5407 219.618 93.8617C221.166 91.7413 223.246 95.4032 224.443 98.3217C227.947 106.827 229.268 115.934 229.268 125.073C229.268 128.172 229.128 131.27 228.901 134.361C228.76 136.231 228.525 138.093 228.158 139.932C228.025 140.589 227.829 142.31 227.415 141.786C226.625 140.8 226.875 139.321 226.672 138.077C224.49 124.619 224.122 111.13 225.929 97.5783C226.523 93.1184 227.704 87.1172 230.011 88.6586C231.302 89.5193 231.724 91.2876 232.24 92.7507C235.705 102.57 236.143 112.562 235.587 122.843C235.408 126.067 235.15 129.283 234.845 132.499C234.422 136.919 233.867 142.483 232.616 139.564C231.998 138.124 231.388 136.646 231.13 135.104C230.52 131.544 230.121 127.937 230.011 124.33C229.871 119.494 230.066 114.659 230.387 109.839C230.833 103.173 229.886 95.3327 234.102 90.1451C234.649 89.4644 236.174 89.8165 236.698 90.5207C238.231 92.5629 239.005 95.1136 239.67 97.5783C242.391 107.648 242.892 119.182 241.899 129.525C241.609 132.53 240.867 135.464 240.413 138.445C240.124 140.299 240.053 142.185 239.67 144.016C239.553 144.564 239.443 145.714 238.927 145.503C238.153 145.198 238.051 144.071 237.809 143.273C237.05 140.714 236.393 138.109 235.955 135.472C234.367 125.934 233.781 116.146 234.469 106.49C234.876 100.849 234.907 94.8398 237.441 89.7774C238.356 87.9387 239.553 93.3532 240.038 95.3484C242.751 106.475 243.4 116.959 242.642 128.414C242.399 132.013 241.922 135.597 241.523 139.188C241.304 141.176 241.172 143.179 240.781 145.135C240.671 145.675 240.577 146.755 240.038 146.622C239.396 146.457 239.482 145.401 239.294 144.759C237.128 137.311 236.291 133.258 235.955 124.698C235.752 119.627 236.049 114.542 236.323 109.464C236.55 105.371 236.847 101.264 237.441 97.2028C238.685 88.6663 241.844 89.9965 244.495 97.2028C247.671 105.817 248.155 116.036 247.1 125.073C246.724 128.203 245.903 131.27 245.238 134.361C245.019 135.386 244.347 141.418 242.266 142.905C240.694 144.024 240.343 139.251 240.038 136.215C239.334 129.181 238.927 116.646 239.294 109.839C239.537 105.481 240.069 101.138 240.781 96.835C241.179 94.4329 241.469 91.9056 242.642 89.7774C243.002 89.1123 244.448 88.7759 244.871 89.4019C246.239 91.4597 246.622 94.0417 247.1 96.4595M216.27 110.95C215.465 120.12 215.113 128.555 216.27 137.702C216.599 140.237 217.35 142.702 218.132 145.135C218.351 145.824 218.531 146.872 219.242 146.989C220.744 147.24 220.619 142.553 221.104 138.445C221.565 134.478 222.222 130.535 222.59 126.56C223.528 116.341 224.584 105.677 221.471 95.7161C221.057 94.4016 220.877 92.5629 219.618 92.0073C218.797 91.6396 218.312 93.361 218.132 94.2295C217.553 97.0307 217.529 99.9256 217.389 102.782C216.747 115.387 216.466 127.624 219.618 139.932C220.071 141.716 220.525 143.554 221.471 145.135C221.737 145.573 222.644 145.91 222.957 145.503C225.389 142.373 225.084 137.858 225.929 133.985M225.929 133.985C226.132 138.226 225.311 142.936 227.415 146.622C227.587 146.927 228.025 146.199 228.158 145.878C228.651 144.681 229.003 143.429 229.268 142.162C229.871 139.329 230.402 136.489 230.754 133.618C231.145 130.41 231.38 127.186 231.497 123.954C231.841 114.526 231.497 104.213 229.268 94.9728C229.01 93.9009 228.838 92.3516 227.782 92.0073C226.719 91.6474 224.834 95.0824 224.075 100.552C222.308 113.149 222.746 126.364 225.186 138.821C225.366 139.721 226.586 146.622 228.158 146.622C230.481 146.622 230.528 142.553 231.13 140.307C232.021 136.966 233.061 133.664 233.726 130.269C235.846 119.463 236.119 108.525 235.587 97.5783C235.478 95.4188 236.221 90.8337 234.102 91.2641C233.304 91.4206 232.295 97.6801 232.24 98.3217C231.912 102.023 231.927 105.747 231.873 109.464C231.74 118.634 231.974 127.843 232.983 136.959C233.82 144.478 235.267 149.423 237.066 139.188C237.551 136.481 237.809 133.743 238.184 131.012C238.677 127.421 239.318 123.853 239.67 120.238C240.061 116.169 240.21 112.069 240.413 107.977C240.577 104.636 240.781 101.295 240.781 97.9461C240.781 95.325 241.719 91.7883 239.67 90.1451C239.318 89.8713 238.747 90.4816 238.552 90.8885C237.723 92.6646 237.089 94.5425 236.698 96.4595C235.971 100.012 235.548 103.627 235.212 107.234C234.36 116.318 234.094 122.789 235.212 131.755C235.478 133.907 236.096 135.996 236.698 138.077C237.027 139.196 237.91 142.021 238.552 141.043C240.671 137.874 240.405 133.641 241.156 129.901C243.369 118.798 244.331 108.157 244.128 96.835C244.05 92.7429 245.215 88.236 243.385 84.5742C243.103 84.0108 243.095 85.8026 243.009 86.4285C242.603 89.5192 242.196 92.6176 241.899 95.7161C241.453 100.419 241.031 105.121 240.781 109.839M225.929 133.985C228.103 123.962 229.167 113.806 228.525 103.525C228.299 99.8318 228.846 95.012 225.929 92.7507C223.849 91.1311 223.184 96.2013 222.957 100.552C222.707 105.246 222.84 109.964 222.957 114.667C223.2 124.752 223.247 133.578 225.929 143.273C226.539 145.479 228.909 150.221 230.387 148.476C233.82 144.407 234.023 138.437 235.212 133.242C236.909 125.832 238.231 118.172 237.809 110.582C237.59 106.647 236.409 97.68 235.212 93.494C235.134 93.2201 234.532 92.8524 234.469 93.1184C231.317 106.522 231.349 123.415 233.359 136.959C233.75 139.634 234.579 142.248 235.587 144.759C235.846 145.409 236.377 146.16 237.066 146.246C239.654 146.575 239.74 141.7 240.413 139.188C241.234 136.113 241.954 133.007 242.642 129.901C244.159 122.976 247.319 107.5 240.038 102.038C237.457 100.098 237.895 105.982 237.809 110.207C237.738 114.299 237.691 118.383 237.809 122.468C237.934 126.56 238.129 130.66 238.552 134.729C239.005 139.032 238.677 144.11 241.523 147.365C241.821 147.701 242.423 147.005 242.642 146.622C243.565 144.979 244.229 143.195 244.871 141.418C245.966 138.359 247.006 135.276 247.835 132.131C250.298 122.82 253.294 106.193 249.696 96.835C249.571 96.5064 249.047 97.2419 248.953 97.5783C248.296 99.8865 247.788 102.249 247.467 104.636C246.92 108.705 246.607 112.805 246.357 116.897C245.88 124.439 245.512 132.021 245.981 139.564C246.122 141.817 246.317 144.126 247.1 146.246C247.272 146.731 248.241 146.997 248.578 146.622C251.667 143.195 253.841 130.973 254.897 126.56C255.476 124.103 256.062 121.631 256.383 119.127C256.68 116.787 256.68 114.424 256.75 112.069C256.844 109.182 257.055 104.839 255.64 104.636C254.498 104.472 253.528 108.188 253.036 113.923C252.214 123.587 251.62 134.017 253.036 143.648C253.247 145.041 253.153 146.739 254.154 147.733C254.647 148.234 255.35 146.888 255.64 146.246C256.492 144.353 256.954 142.31 257.493 140.307C259.339 133.477 261.451 125.903 261.208 118.751C261.153 117.124 260.841 115.512 260.465 113.923C260.34 113.384 260.238 112.233 259.722 112.437C257.102 113.485 257.931 117.82 257.493 120.613C256.414 127.475 256.187 129.439 256.007 136.215C255.953 138.445 255.921 140.675 256.007 142.905C256.047 143.781 255.507 145.503 256.383 145.503C257.509 145.503 258.854 132.929 258.979 131.388C259.887 120.465 258.768 109.44 256.75 98.6894C256.328 96.4203 256.18 93.9321 254.897 92.0073C254.131 90.8493 253.341 94.3703 253.036 95.7161C252.574 97.8052 252.269 99.9257 251.925 102.038C251.526 104.511 251.026 106.968 250.807 109.464C250.744 110.246 250.596 116.599 251.182 116.897C251.307 116.959 252.621 116.06 254.154 112.069C254.897 110.129 255.39 108.102 256.007 106.123C257.791 100.403 258.893 95.364 259.355 89.4019C259.495 87.5318 260.465 83.5962 258.612 83.8309C256.148 84.136 255.233 87.5475 254.154 89.7774C253.043 92.07 252.105 94.4564 251.182 96.835C250.369 98.9163 249.461 100.974 248.953 103.149C248.476 105.207 247.389 108.634 249.321 109.464C252.316 110.747 254.475 102.758 254.897 101.663C255.929 98.9789 261.795 82.3442 255.264 82.3442C248.531 82.3442 243.181 98.2748 243.009 103.525C242.908 106.835 243.807 108.173 246.724 108.72C257.243 110.7 259.378 90.3564 250.439 91.6318C246.849 92.1482 246.052 96.8272 245.614 99.4327C244.284 107.202 244.941 116.396 247.1 123.954C247.616 125.777 248.296 129.447 250.064 128.79C252.668 127.812 252.441 123.704 253.036 120.981C253.708 117.93 256.406 101.671 251.925 100.176C249.821 99.4797 250.126 106.733 250.064 109.464C249.868 118.939 249.297 129.009 250.439 138.445C250.846 141.81 252.621 146.41 254.154 141.043M240.781 109.839C240.343 118.376 240.225 126.928 240.413 135.472C240.468 137.976 239.099 142.295 241.523 142.905C242.001 143.022 243.033 139.924 243.752 136.591C245.848 126.888 246.763 116.764 247.1 106.866C247.217 103.4 247.1 99.9335 247.1 96.4595M240.781 109.839C241.109 106.334 241.805 102.86 242.642 99.4327C243.377 96.4203 243.768 92.6099 246.357 90.8885C247.584 90.0669 247.1 94.8946 247.1 96.4595M240.781 109.839C240.155 116.545 240.257 127.827 241.156 134.729C241.445 136.99 241.508 141.418 243.752 141.043C245.778 140.706 245.739 137.428 246.357 135.472C247.123 133.007 247.983 130.558 248.578 128.047C251.565 115.496 251.933 101.498 251.55 88.6586C251.518 87.4145 251.573 86.1235 251.182 84.942C251.018 84.4569 250.893 85.9278 250.807 86.4285C250.4 88.9011 250.009 91.3736 249.696 93.8617C249.141 98.3138 248.625 102.774 248.21 107.234C247.35 116.623 246.888 126.051 246.724 135.472C246.677 138.077 246.45 140.691 246.724 143.273C246.826 144.212 246.943 146.176 247.835 145.878C249.806 145.221 251.425 137.264 251.925 134.729C254.099 123.618 254.881 112.578 255.264 101.295C255.374 98.0712 255.437 94.8476 255.64 91.6318C255.687 90.8806 256.007 89.4019 256.007 89.4019C256.007 89.4019 254.631 96.0682 254.154 99.4327C253.536 103.752 253.09 108.094 252.668 112.437C251.8 121.325 251.339 130.261 251.182 139.188C251.127 142.232 250.126 149.235 252.668 149.963C253.669 150.252 254.428 146.168 255.264 142.162C255.937 138.954 256.594 135.738 257.126 132.499C258.924 121.466 260.098 109.886 259.355 98.6894C259.222 96.8037 259.081 94.8163 258.236 93.1184C258.01 92.6646 257.032 93.0637 256.75 93.494C255.945 94.699 255.64 96.1777 255.264 97.5783C253.208 105.371 252.809 109.557 252.293 118.008C251.776 126.575 250.244 138.124 252.668 146.622C252.942 147.576 253.974 145.002 254.154 144.016C254.49 142.177 254.686 140.307 254.897 138.445C255.178 135.973 255.468 133.5 255.64 131.012C256.359 120.699 256.312 109.964 254.154 99.8083C253.685 97.6253 253.137 95.364 251.925 93.494C251.589 92.9698 250.376 92.9541 250.064 93.494C249.188 95.0276 249.11 96.9289 248.953 98.6894C248.609 102.641 248.64 106.615 248.578 110.582C248.46 118.524 248.679 126.536 250.064 134.361C250.423 136.372 250.869 138.375 251.55 140.307C251.644 140.566 252.074 140.839 252.293 140.675C254.052 139.361 253.794 136.52 254.154 134.361C254.623 131.528 255.038 128.68 255.264 125.817C256.172 114.252 256.437 102.25 253.778 90.8885C253.325 88.9402 252.856 86.8355 251.55 85.3175C249.415 82.8216 247.889 88.768 246.724 93.8617C243.463 108.086 242.282 122.773 243.385 137.334C243.643 140.746 244.605 145.503 245.238 145.503C245.934 145.503 246.247 142.6 246.724 139.188C247.123 136.34 247.561 133.5 247.835 130.644C248.953 119.268 249.305 107.75 247.1 96.4595" stroke="#A20000" stroke-width="2.33287" stroke-miterlimit="10" stroke-linecap="round" stroke-linejoin="round"/>
<path d="M248.21 127.671C247.576 129.572 251.033 146.418 252.292 147.365C253.317 148.124 253.035 143.632 253.035 142.905C253.035 138.805 253.426 139.611 251.924 135.847C251.463 134.697 250.305 131.794 249.695 132.874C247.107 137.396 252.832 152.654 254.521 157.396C255.569 160.322 257.195 165.157 257.868 164.821C258.283 164.617 257.344 154.36 257.125 153.303C256.891 152.192 256.656 151.073 256.382 149.962C256.281 149.587 256.007 148.46 256.007 148.851C256.007 161.269 261.067 174.257 263.436 186.377C264.164 190.117 263.921 194.342 266.033 197.519C266.189 197.754 266.385 197.049 266.408 196.776C266.51 195.665 266.51 194.546 266.408 193.435C266.26 191.807 265.892 190.219 265.665 188.599C264.766 182.301 262.983 176.518 261.208 170.4C260.738 168.78 259.722 163.882 259.722 165.564C259.722 171.425 262.451 176.956 263.804 182.66C266.807 195.281 269.967 207.878 272.72 220.554" stroke="#A20000" stroke-width="2.33287" stroke-miterlimit="10" stroke-linecap="round" stroke-linejoin="round"/>
<path d="M275.692 203.09C275.692 212.128 275.489 221.188 275.692 230.217C275.778 234.192 275.027 238.543 276.803 242.103C277.084 242.666 277.139 240.874 277.178 240.248C277.264 238.637 277.178 237.025 277.178 235.413C277.178 232.44 277.35 229.466 277.546 226.501C277.585 225.883 277.108 224.2 277.546 224.639C279.477 226.579 278.132 230.084 278.288 232.815C278.421 235.17 278.601 237.518 278.664 239.873C278.945 251.249 278.304 262.384 277.178 273.682" stroke="#A20000" stroke-width="2.33287" stroke-miterlimit="10" stroke-linecap="round" stroke-linejoin="round"/>
<path d="M64.024 51.0031C65.2362 49.5579 62.8353 53.6253 62.4834 54.3032C61.451 56.2625 60.8018 58.5197 60.4264 60.6503C59.9885 63.1757 59.5662 65.999 60.4264 68.4723C60.6063 68.964 62.022 70.8189 61.7091 71.4C61.3963 72.0034 60.2935 71.5936 59.66 71.8916C57.8769 72.7409 56.438 73.9776 55.0459 75.311C53.4974 76.786 51.9644 78.2462 50.4237 79.7063C49.9154 80.198 49.3993 80.6822 48.8909 81.1738C48.7189 81.3377 48.5469 81.8219 48.3748 81.6654C47.9838 81.2855 51.1902 74.1191 51.4561 73.3592C54.0291 65.9991 59.9182 55.8826 64.024 51.0031Z" stroke="#A20000" stroke-width="1.76948" stroke-miterlimit="10" stroke-linecap="round" stroke-linejoin="round"/>
<path d="M64.79 51.1222C72.1806 47.606 92.3424 45.535 94.54 56.0091C95.1422 58.8921 94.0862 62.6914 92.2327 65.0529C91.482 66.0064 90.1916 66.7066 89.9257 67.9805C89.7067 69.0309 96.7063 78.4546 97.8716 80.682C98.1532 81.211 99.6078 83.863 100.187 83.863C100.617 83.863 100.437 83.0585 100.437 82.6413C100.437 80.2798 100.437 77.9183 100.437 75.5567C100.437 68.5244 100.14 65.4552 96.8471 59.1901C96.1276 57.8045 95.5566 55.2716 94.0315 54.5416" stroke="#A20000" stroke-width="1.76948" stroke-miterlimit="10" stroke-linecap="round" stroke-linejoin="round"/>
<path d="M61.7109 70.9158C63.6505 71.8321 65.3945 73.1581 67.3575 74.0893C69.4925 75.1099 74.92 75.5493 76.0775 77.7544" stroke="#A20000" stroke-width="1.76948" stroke-miterlimit="10" stroke-linecap="round" stroke-linejoin="round"/>
<path d="M90.693 69.2017C86.5323 67.8831 82.5283 72.1442 80.6904 75.0645C76.1701 82.2458 75.0516 90.6042 75.0516 99.0073C75.0516 119.784 76.17 140.725 73.769 161.308C73.1747 166.374 73.769 171.834 73.769 176.945C73.769 188.916 74.0272 200.858 74.0272 212.851" stroke="#A20000" stroke-width="1.76948" stroke-miterlimit="10" stroke-linecap="round" stroke-linejoin="round"/>
<path d="M54.7881 63.8308C55.0384 63.354 56.1959 61.6257 56.8372 61.6257C56.9702 61.6257 55.5076 62.5122 55.3042 62.609C54.4987 62.989 53.5993 63.1081 52.739 63.3391C50.0409 64.0766 47.4992 65.045 44.7854 65.7826C37.301 67.8163 28.4871 69.9692 21.6987 73.8429C20.5022 74.5283 19.4542 75.914 18.3671 76.7781C16.2712 78.4394 14.1908 79.8548 12.4703 81.9034C7.86388 87.3937 7.95781 98.203 7.08189 104.87C6.38585 110.204 5.54112 115.62 5.03278 120.999C3.96134 132.203 3.00739 143.511 1.69351 154.708C1.28684 158.202 1.69351 161.941 1.69351 165.458C1.69351 174.189 1.95147 182.912 1.95147 191.598C1.95147 197.223 2.92123 203.681 1.95147 209.186C1.50569 211.771 0.614144 215.034 1.18505 217.739C1.56827 219.556 8.21584 224.451 10.1632 224.823C12.0167 225.181 13.9171 225.196 15.8019 225.561C16.889 225.762 21.4642 226.388 22.215 225.315C23.2864 223.78 19.7045 221.419 18.6252 221.158C13.5965 219.966 9.2952 219.206 4.00841 219.206" stroke="#A20000" stroke-width="1.76948" stroke-miterlimit="10" stroke-linecap="round" stroke-linejoin="round"/>
<path d="M23.7559 222.872C23.7559 214.491 24.4206 206.498 25.2965 198.199C25.7423 193.915 27.2829 189.639 28.37 185.49C30.4347 177.623 31.5139 168.639 32.2177 160.571C32.9294 152.421 33.4222 144.048 32.4759 135.898C31.9519 131.428 30.5754 127.123 29.9106 122.705C29.676 121.148 29.8012 119.613 29.3946 118.064" stroke="#A20000" stroke-width="1.76948" stroke-miterlimit="10" stroke-linecap="round" stroke-linejoin="round"/>
<path d="M34.5253 152.756C34.5253 151.691 34.5253 155.654 34.5253 156.176C34.5253 157.964 34.5253 159.759 34.5253 161.547C34.5253 167.983 33.5008 174.405 33.5008 180.849C33.5008 200.285 32.7344 219.75 32.7344 239.238" stroke="#A20000" stroke-width="1.76948" stroke-miterlimit="10" stroke-linecap="round" stroke-linejoin="round"/>
<path d="M95.0576 55.7632C99.797 60.2776 110.597 63.4288 117.112 64.807C120.272 65.4774 123.885 65.0602 126.856 66.7587C130.908 69.0755 135.866 70.6995 139.424 74.0891C146.831 81.1438 150.467 89.2787 152.508 99.0078C153.017 101.429 154.44 103.679 155.074 106.092" stroke="#A20000" stroke-width="1.76948" stroke-miterlimit="10" stroke-linecap="round" stroke-linejoin="round"/>
<path d="M154.814 103.649C154.087 105.72 155.753 108.26 156.355 110.249C157.888 115.36 158.81 121.297 159.428 126.616C162.392 151.997 167.124 177.109 167.124 202.84C167.124 208.568 170.346 222.849 166.866 227.267C166.303 227.99 164.926 228.079 164.042 228.243C162.736 228.496 161.462 229.166 160.203 229.464C156.863 230.262 150.599 229.226 146.86 229.226" stroke="#A20000" stroke-width="1.76948" stroke-miterlimit="10" stroke-linecap="round" stroke-linejoin="round"/>
<path d="M131.728 105.362C131.728 114.317 131.728 123.278 131.728 132.233C131.728 135.838 131.047 139.6 131.478 143.228C133.722 162.53 137.468 181.549 141.48 200.642C142.896 207.406 143.85 214.319 145.578 220.92C146.29 223.617 145.93 226.313 146.861 228.98" stroke="#A20000" stroke-width="1.76948" stroke-miterlimit="10" stroke-linecap="round" stroke-linejoin="round"/>
<path d="M84.2342 72.5615C84.2342 76.5023 83.3427 80.4953 83.0689 84.4287C82.6857 89.9041 82.8813 95.4093 82.4043 100.877C81.935 106.278 82.2557 112.096 82.5685 117.49C83.2176 128.552 82.9047 139.779 82.9047 150.871C82.9047 154.365 83.1863 157.986 82.9047 161.465C82.6623 164.444 82.1227 167.968 82.5685 170.955C82.9439 173.451 82.4433 176.043 82.7405 178.554C83.3818 184.074 83.4365 190.205 83.0689 195.792C82.021 211.786 82.0757 227.676 82.0757 243.723" stroke="#A20000" stroke-width="1.76948" stroke-miterlimit="10" stroke-linecap="round" stroke-linejoin="round"/>
<path d="M74.269 210.982C73.5338 213.776 74.5192 216.83 74.269 219.683C73.6277 226.999 74.4334 234.255 74.4334 241.51" stroke="#A20000" stroke-width="1.76948" stroke-miterlimit="10" stroke-linecap="round" stroke-linejoin="round"/>
<path d="M77.7561 206.237C76.3093 205.201 77.7013 208.338 78.2487 207.816C78.7649 207.325 78.4834 206.058 77.7561 205.917C76.9428 205.76 76.8175 207.801 77.4197 207.66C78.1235 207.488 77.8421 206.296 77.7561 206.237Z" stroke="#A20000" stroke-width="1.76948" stroke-miterlimit="10" stroke-linecap="round" stroke-linejoin="round"/>
<path d="M77.9229 182.346C76.7185 180.692 77.6257 183.113 77.9229 183.299C78.5563 183.702 79.0489 181.996 78.7517 181.713C77.5551 180.573 76.7653 183.813 77.5864 183.612C78.2356 183.456 77.9776 182.428 77.9229 182.346Z" stroke="#A20000" stroke-width="1.76948" stroke-miterlimit="10" stroke-linecap="round" stroke-linejoin="round"/>
<path d="M77.9231 159.014C76.7578 158.038 77.9543 160.869 78.752 160.362C79.2838 160.02 79.2369 158.649 78.752 158.306C78.2124 157.919 78.2907 159.327 77.9231 159.014Z" stroke="#A20000" stroke-width="1.76948" stroke-miterlimit="10" stroke-linecap="round" stroke-linejoin="round"/>
<path d="M78.085 133.313V133.939L78.2492 134.259L78.5854 134.416L78.914 134.572L79.2502 134.259L79.4144 133.782V133.149V132.836L79.2502 132.516L78.5854 132.836L78.4212 133.149V133.626" stroke="#A20000" stroke-width="1.76948" stroke-miterlimit="10" stroke-linecap="round" stroke-linejoin="round"/>
<path d="M78.1726 110.532C77.6564 110.957 77.9693 111.575 78.4229 112.112C79.3223 113.184 80.2529 108.804 78.1726 110.532Z" stroke="#A20000" stroke-width="1.76948" stroke-miterlimit="10" stroke-linecap="round" stroke-linejoin="round"/>
<path d="M70.164 35.8802C70.164 33.9731 70.0937 31.8351 71.1729 30.1292C74.2543 25.2348 82.7866 27.8198 85.0077 32.0437C88.9415 39.5454 84.6636 47.7548 81.4805 54.5711C80.4404 56.7985 80.112 59.3463 78.9701 61.5216C78.8137 61.8121 79.0641 62.4752 78.72 62.4752C78.2899 62.4752 78.4619 61.6854 78.4619 61.2757C78.4619 58.646 79.7678 55.8152 80.7298 53.3717C83.0682 47.427 85.9228 41.825 84.7497 35.1576C84.1475 31.7159 76.4833 26.8811 73.4332 30.3675C71.9786 32.0288 71.1965 34.4648 70.915 36.5953C70.8368 37.236 70.915 37.8767 70.915 38.5174C70.915 38.9196 70.9774 40.0743 71.1729 39.7167C71.5092 39.0761 71.4546 37.3477 71.6736 36.5953C73.2924 30.9337 76.6631 27.5516 82.7398 30.1292C92.5469 34.2786 83.6704 48.7307 80.7298 54.3328C79.6036 56.4708 78.7669 58.4822 78.4619 60.799C78.4149 61.1789 78.4619 64.8366 78.4619 62.9593" stroke="#A20000" stroke-width="1.76948" stroke-miterlimit="10" stroke-linecap="round" stroke-linejoin="round"/>
<path d="M131.547 105.228C130.601 107.94 131.281 111.709 131.281 114.518C131.281 119.986 131.5 125.632 131.023 131.078C128.997 154.179 130.475 178.047 132.337 201.096C132.704 205.588 132.212 210.162 132.603 214.647C133.275 222.365 133.815 231.178 128.653 237.733C126.229 240.81 112.457 243.991 108.625 244.512C104.753 245.041 100.89 245.496 97.0342 246.017C93.5774 246.487 90.0737 245.518 86.7577 245.518C83.4886 245.518 79.7035 246.025 76.4814 245.518C68.8093 244.296 60.5115 244.036 52.7768 245.265C47.4509 246.114 30.9023 243.827 30.9023 237.234" stroke="#A20000" stroke-width="1.76948" stroke-miterlimit="10" stroke-linecap="round" stroke-linejoin="round"/>
<path d="M79.6813 56.8728C76.4669 60.2102 71.9073 61.4021 67.9892 63.7413C66.6831 64.5235 65.3459 65.2162 63.9851 65.9389C63.5862 66.1549 63.1795 66.3635 62.7806 66.5795C62.6164 66.6614 62.1707 66.9595 62.2959 66.8329C63.1561 65.9389 64.9314 65.5143 66.0107 64.9406C68.6384 63.5476 71.2583 62.1247 73.933 60.8136C75.1217 60.2399 76.2713 59.5769 77.4288 58.9661C77.8198 58.7575 78.2265 58.616 78.6097 58.4148C78.6723 58.385 78.813 58.2137 78.7583 58.2584C75.3015 61.0594 70.6873 62.8845 66.6519 64.8289C65.4084 65.4248 64.204 66.1624 62.9449 66.7211C62.3974 66.952 61.9908 67.2947 61.4668 67.5704C61.3261 67.6448 60.9272 67.8087 61.0836 67.8534C61.8579 68.062 64.2118 66.8402 64.9079 66.5795C67.911 65.4546 70.8125 64.0467 73.6827 62.6759C75.0904 62.0055 76.5295 61.4691 77.9138 60.7391C78.3204 60.523 78.7193 60.3145 79.1182 60.0984C79.3763 59.9569 80.2286 59.6887 79.9314 59.7409C76.4277 60.3666 72.8067 62.8325 69.788 64.5161C68.6461 65.1567 67.5747 65.8569 66.4485 66.5125C66.1982 66.6615 65.4397 67.1234 65.6978 66.9818C68.9512 65.261 71.8449 62.9293 75.1922 61.35" stroke="#A20000" stroke-width="1.76948" stroke-miterlimit="10" stroke-linecap="round" stroke-linejoin="round"/>
<path d="M80.588 57.8938C82.0114 58.9367 83.8336 59.5848 85.429 60.367C86.5474 60.9108 87.6736 61.4621 88.7763 62.0432C89.9025 62.6466 91.1068 63.0489 92.2721 63.5778C92.6632 63.7492 93.8519 64.1961 93.4374 64.0843C89.9885 63.1457 86.61 61.842 83.1376 60.9034C82.8013 60.8065 80.3768 59.5848 80.15 59.704C79.8841 59.8455 80.6662 59.9871 80.9399 60.1138C81.6516 60.4415 82.3633 60.7693 83.0828 61.0822C84.9441 61.8793 86.782 62.7509 88.6043 63.6374C89.3707 64.0173 90.0979 64.509 90.88 64.8367C90.966 64.874 91.1616 64.9187 91.1616 64.9187C91.1616 64.9187 89.1205 64.0471 88.1038 63.6001C86.4849 62.8849 84.9832 62.0729 83.4582 61.179C82.0505 60.3595 82.989 60.9034 81.7142 60.2255C81.4796 60.0989 81.2528 59.9722 81.0182 59.8456C80.9009 59.7785 80.5412 59.6146 80.6742 59.6519C83.6851 60.4713 86.7429 62.2368 89.527 63.6001" stroke="#A20000" stroke-width="1.76948" stroke-miterlimit="10" stroke-linecap="round" stroke-linejoin="round"/>
<path d="M61.5928 68.8598C62.9458 69.2322 64.9635 67.72 66.1445 67.1985C70.5866 65.2542 75.2087 63.2205 79.471 60.9707" stroke="#A20000" stroke-width="1.76948" stroke-miterlimit="10" stroke-linecap="round" stroke-linejoin="round"/>
<path d="M145.359 216.934C147.776 216.934 150.052 216.509 152.437 216.278C155.573 215.98 159.233 216.584 162.244 215.63C164.895 214.789 166.413 212.338 168.634 211.28" stroke="#A20000" stroke-width="1.76948" stroke-miterlimit="10" stroke-linecap="round" stroke-linejoin="round"/>
<path d="M3.64851 204.762C5.36124 204.501 6.33085 203.376 7.98101 202.802C10.7495 201.841 13.7136 203.138 16.2006 204.322C17.9211 205.142 19.6964 206.497 21.6751 206.497C22.3789 206.497 22.856 206.468 23.4973 206.714C23.7241 206.803 24.2952 207.138 24.1857 206.929C22.121 203.004 12.5171 203.674 8.89617 203.674C7.30856 203.674 5.86949 204.106 4.32881 204.106C4.10201 204.106 3.67979 203.89 3.64851 204.106C3.5703 204.561 3.27312 204.814 3.64851 204.762Z" stroke="#A20000" stroke-width="1.76948" stroke-miterlimit="10" stroke-linecap="round" stroke-linejoin="round"/>
<path d="M29.4329 136.941C29.4329 139.444 30.2306 141.664 30.8015 144.115C31.0361 145.12 31.2472 146.141 31.4896 147.154C31.8572 148.748 32.3186 150.328 32.6236 151.937C32.6549 152.078 32.6783 152.51 32.6236 152.369C31.2628 148.473 32.1075 143.578 31.9433 139.548C31.8964 138.312 32.6315 136.725 31.7165 135.853C31.2003 135.362 31.0752 137.12 31.0283 137.805C30.9188 139.399 30.9736 140.993 31.0283 142.588C31.2082 147.244 31.7791 151.862 32.1701 156.503C32.2952 158.023 32.3969 159.543 32.3969 161.07C32.3969 161.212 32.4439 161.636 32.3969 161.502C31.4741 158.865 31.6304 155.513 31.4896 152.808C31.1455 146.536 31.5054 140.129 30.8015 133.894C30.5512 131.637 30.0977 129.38 29.6597 127.16C29.5033 126.37 29.5502 125.558 29.4329 124.768C29.3781 124.396 28.9871 123.368 29.206 123.681C31.0908 126.377 31.4193 131.302 31.7165 134.326C32.4125 141.403 32.1701 148.532 32.1701 155.632C32.1701 158.492 32.0684 161.264 31.7165 164.109C31.5991 165.048 31.5991 165.994 31.4896 166.933C31.4349 167.372 30.9343 168.549 31.255 168.236C32.1934 167.35 31.7165 162.798 31.7165 161.718C31.7165 160.63 31.7477 159.543 31.7165 158.455C31.6695 156.794 31.56 155.125 31.4896 153.457C31.1612 146.134 31.3411 138.989 30.3478 131.719C30.0428 129.529 30.0742 127.338 29.4329 125.2C29.1982 124.418 28.8697 123.621 28.7445 122.809C28.6976 122.451 28.4786 121.468 28.7445 121.721C30.5824 123.465 30.0741 129.677 30.1132 131.503C30.1601 133.462 30.1132 135.414 30.1132 137.373C30.1132 139.109 30.1132 140.852 30.1132 142.588C30.1132 147.825 30.6137 153.039 31.255 158.239" stroke="#A20000" stroke-width="1.76948" stroke-miterlimit="10" stroke-linecap="round" stroke-linejoin="round"/>
<path d="M136.006 157.368C138.36 150.633 140.878 143.981 141.934 136.941C142.215 135.064 142.427 133.171 142.622 131.287C142.724 130.348 142.849 129.402 142.849 128.463C142.849 128.24 142.974 127.629 142.849 127.808C141.089 130.326 141.637 136.33 141.48 139.109C141.371 141.068 141.363 143.042 141.027 144.979" stroke="#A20000" stroke-width="1.76948" stroke-miterlimit="10" stroke-linecap="round" stroke-linejoin="round"/>
<path d="M134.865 156.503C136.914 166.277 138.846 176.096 141.255 185.847C141.849 188.261 142.678 190.615 143.304 193.021C143.382 193.304 143.578 194.019 143.304 193.893C142.123 193.327 142.17 191.598 141.708 190.414C141.27 189.274 140.903 188.104 140.567 186.935C140.144 185.423 139.785 183.895 139.425 182.368C139.026 180.633 138.666 178.889 138.291 177.154" stroke="#A20000" stroke-width="1.76948" stroke-miterlimit="10" stroke-linecap="round" stroke-linejoin="round"/>
<path d="M136.46 163.894C135.506 166.62 138.196 174.39 138.744 177.154C140.347 185.311 142.224 193.476 143.303 201.715C143.577 203.749 144.992 209.068 144.218 211.28C144.163 211.437 144.038 211.005 143.991 210.848C143.733 209.984 143.537 209.105 143.303 208.233" stroke="#A20000" stroke-width="1.76948" stroke-miterlimit="10" stroke-linecap="round" stroke-linejoin="round"/>
<path d="M142.169 197.587C142.826 203.234 143.397 208.948 144.445 214.543C144.578 215.221 145.047 218.848 146.048 219.325" stroke="#A20000" stroke-width="1.76948" stroke-miterlimit="10" stroke-linecap="round" stroke-linejoin="round"/>
<path d="M144.445 216.279C144.829 217.724 146.62 217.88 148.098 218.022C152.344 218.424 155.707 216.86 158.601 214.103C158.749 213.962 158.319 214.424 158.139 214.543C157.78 214.789 157.404 215.02 156.998 215.191C155.504 215.839 153.776 216.07 152.204 216.495C151.554 216.673 149.74 217.165 150.381 217.366C152.657 218.089 159.711 215.921 162.019 215.191C163.09 214.848 164.161 214.505 165.217 214.103C165.663 213.932 167.063 213.671 166.586 213.671C164.138 213.671 160.752 213.038 158.601 214.327C157.6 214.915 156.348 216.584 155.856 217.582C154.855 219.653 157.694 218.67 158.828 218.67" stroke="#A20000" stroke-width="1.76948" stroke-miterlimit="10" stroke-linecap="round" stroke-linejoin="round"/>
<path d="M148.785 228.891C147.619 229.442 153.321 229.167 153.806 229.107C156.465 228.772 159.405 228.787 162.017 228.235C162.651 228.101 163.253 227.841 163.847 227.58C164.246 227.409 165.427 226.932 164.989 226.932C164.097 226.932 157.63 230.314 156.769 230.843C156.05 231.29 154.259 232.094 154.947 232.586C157.88 234.679 163.667 229.39 165.443 227.803C167.054 226.358 169.009 225.025 168.634 224.756C166.115 222.954 159.397 229.42 163.847 228.668C164.629 228.541 165.388 228.302 166.123 228.019C168.188 227.23 167.914 227.401 168.868 226.5" stroke="#A20000" stroke-width="1.76948" stroke-miterlimit="10" stroke-linecap="round" stroke-linejoin="round"/>
<path d="M60.4902 71.3477C61.898 72.6886 68.4204 79.2814 70.6258 77.8809C71.447 77.3595 62.8912 73.7465 64.0643 73.9104C66.9267 74.2977 70.3521 77.0838 73.0112 78.164C74.0748 78.6035 75.1618 79.0356 76.288 79.3038C76.5774 79.3709 77.3906 79.505 77.1795 79.3038C74.7238 76.9572 69.8515 77.1062 67.0439 75.3258C66.864 75.2066 66.6451 74.9458 66.7468 74.7596C67.4428 73.4336 76.2488 77.2403 77.1795 79.0207C78.0632 80.6894 76.0221 81.9484 75.0914 83.2744C74.6222 83.9523 73.0034 85.8371 73.6056 85.2635C74.7943 84.1311 75.6936 81.941 76.288 80.4362C76.5383 79.7955 76.8824 77.7617 76.8824 78.4471C76.8824 83.3489 74.7395 88.72 74.497 93.7857C74.3015 97.9128 75.0445 98.4269 75.0914 98.33C76.2176 96.192 74.6378 90.9623 74.497 88.6753C74.411 87.245 74.3797 83.0509 73.9027 84.4142C72.7217 87.774 73.6056 93.1823 73.6056 96.624C73.6056 102.457 73.5899 108.424 74.1999 114.227" stroke="#A20000" stroke-width="1.76948" stroke-miterlimit="10" stroke-linecap="round" stroke-linejoin="round"/>
<path d="M84.6314 72.912C83.0985 72.6066 87.4861 69.9471 87.9084 70.2153C89.8636 71.4593 83.1455 75.065 83.1455 75.0426C83.1455 73.5527 87.0089 73.3888 84.6314 72.912Z" stroke="#A20000" stroke-width="1.76948" stroke-miterlimit="10" stroke-linecap="round" stroke-linejoin="round"/>
<path d="M84.0365 73.053C82.0344 74.9601 81.1273 80.1747 80.4626 82.7076C80.0403 84.2943 79.7742 85.9109 79.5631 87.5349C79.5396 87.7211 79.4771 88.2724 79.5631 88.101C80.9317 85.4937 80.7597 80.4727 80.7597 77.5972C80.7597 77.2173 81.1116 76.6287 80.7597 76.4648C79.962 76.0849 79.8681 77.9399 79.5631 78.7295C78.5464 81.3965 77.7643 84.1901 77.1777 86.9688" stroke="#A20000" stroke-width="1.76948" stroke-miterlimit="10" stroke-linecap="round" stroke-linejoin="round"/>
<path d="M78.078 82.425C78.078 74.9084 74.4961 92.4372 74.4961 94.9179" stroke="#A20000" stroke-width="1.76948" stroke-miterlimit="10" stroke-linecap="round" stroke-linejoin="round"/>
<path d="M68.8338 76.7485C67.4573 76.309 73.972 81.1065 75.0903 82.7082C75.2155 82.887 75.5519 83.1254 75.3954 83.2744C74.9184 83.7288 74.1363 82.805 73.6045 82.4251C72.2828 81.479 69.2562 79.2516 68.5367 77.8809C68.3724 77.5755 69.131 78.2608 69.4282 78.4471C70.0225 78.827 70.6169 79.2218 71.2191 79.5869C71.8213 79.9519 75.6925 81.5311 75.6925 82.4251C75.6925 82.8795 72.877 80.0711 72.705 79.8699C72.572 79.7061 72.4079 79.0877 72.4079 79.3038C72.4079 81.1066 73.19 82.4028 74.1989 83.848" stroke="#A20000" stroke-width="1.76948" stroke-miterlimit="10" stroke-linecap="round" stroke-linejoin="round"/>
<path d="M64.3619 53.1779C61.961 54.6976 68.1002 51.2858 68.8353 50.9058C69.5392 50.5408 71.7211 49.7735 70.9234 49.7735C68.9213 49.7735 65.8792 51.5614 64.0648 52.3287C63.4079 52.6043 61.5622 53.461 62.2739 53.461C64.0413 53.461 66.6378 51.2709 68.5383 50.9058C69.9225 50.6451 71.3223 50.2726 72.7066 50.0566C72.9099 50.0268 73.3088 50.2428 73.3088 50.0566C73.3088 47.5908 64.839 51.025 63.7676 52.0382C63.6111 52.1946 63.2828 52.4925 63.4705 52.6117C64.19 53.0661 74.3881 48.3506 76.8829 48.3506" stroke="#A20000" stroke-width="1.76948" stroke-miterlimit="10" stroke-linecap="round" stroke-linejoin="round"/>
<path d="M29.1843 120.194C28.285 118.466 28.0503 123.941 27.9956 125.871C27.933 128.143 27.9956 130.415 27.9956 132.687C27.9956 140.144 27.8078 147.705 28.8871 155.118C29.0826 156.459 29.4503 157.777 29.7866 159.096C29.9977 159.945 30.3809 162.523 30.3809 161.651C30.3809 160.891 30.3809 160.131 30.3809 159.379" stroke="#A20000" stroke-width="1.76948" stroke-miterlimit="10" stroke-linecap="round" stroke-linejoin="round"/>
<path d="M30.6766 144.614C30.6766 144.041 30.8174 143.46 30.6766 142.908C30.6218 142.7 30.4186 143.266 30.3795 143.475C30.2153 144.413 30.1682 145.367 30.0822 146.313C29.8632 148.726 29.613 152.205 29.4878 154.552C29.3705 156.534 29.2768 158.523 29.1829 160.512C28.8701 167.291 29.6366 177.296 25.9061 183.516C25.7262 183.806 25.3117 183.002 25.3117 182.659C25.3117 179.441 26.8054 176.037 27.9941 173.005C28.3383 172.133 28.745 169.615 29.1829 170.449C30.0979 172.185 25.8513 185.013 25.3117 186.92C24.8034 188.716 24.3262 190.519 23.8178 192.314C22.9888 195.242 22.1287 198.162 21.4327 201.119C21.3232 201.589 21.6437 202.535 21.1354 202.535C20.7756 202.535 21.6907 198.341 21.7298 197.998C21.8001 197.424 21.9567 195.718 22.0349 196.292C22.4103 199.167 20.4394 211.578 22.332 212.48" stroke="#A20000" stroke-width="1.76948" stroke-miterlimit="10" stroke-linecap="round" stroke-linejoin="round"/>
<path d="M3.5464 220.145C4.39104 221.746 17.4359 227.915 18.7498 225.821C20.8145 222.543 8.70801 218.439 6.22885 218.439C5.68922 218.439 2.06055 218.037 2.06055 219.288C2.06055 221.501 19.5633 226.842 20.838 224.398C21.5341 223.072 17.5924 221.702 17.2639 221.56C13.6508 220.033 8.16063 218.297 4.14861 218.722C3.92181 218.744 3.80459 219.087 3.84369 219.288C4.51627 222.484 13.5804 223.795 16.0673 224.115C18.4214 224.421 21.4324 224.711 21.4324 224.115M21.4324 224.115C21.4324 222.618 9.93599 219.519 8.3171 219.288C7.53503 219.176 6.08817 218.551 5.93175 219.288C5.66585 220.562 21.4324 225.762 21.4324 224.115ZM21.4324 224.115C21.4324 221.717 9.26332 218.677 8.6142 219.288C8.39522 219.504 9.22433 219.459 9.51369 219.579C10.4131 219.936 11.2811 220.376 12.1961 220.711C12.5872 220.852 19.0001 222.797 19.352 222.134C19.4458 221.94 19.2348 221.687 19.0471 221.56C16.6852 219.951 1.92755 215.481 11.5939 219.288C13.1659 219.906 14.7614 220.465 16.3646 220.994C17.6472 221.411 18.9533 221.754 20.2437 222.134" stroke="#A20000" stroke-width="1.76948" stroke-miterlimit="10" stroke-linecap="round" stroke-linejoin="round"/>
<path d="M22.9272 217.59C22.9272 217.739 23.3808 219.996 23.5216 219.862C24.1551 219.258 23.4747 213.79 23.5216 212.189C23.764 204.277 26.5013 196.127 26.5013 188.343C26.5013 188.037 26.2979 188.909 26.204 189.192C25.899 190.138 25.6254 191.091 25.3126 192.03C24.9293 193.17 24.4601 194.287 24.116 195.442C22.9116 199.539 22.1843 203.674 22.0357 207.935C21.9575 209.916 22.0357 211.905 22.0357 213.894C22.0357 214.088 22.0357 214.654 22.0357 214.461C22.0357 206.981 22.8021 199.897 24.7182 192.596" stroke="#A20000" stroke-width="1.76948" stroke-miterlimit="10" stroke-linecap="round" stroke-linejoin="round"/>
<path d="M13.3858 204.24C15.3332 203.622 17.7341 204.881 19.6502 205.38C20.229 205.529 21.973 205.916 21.4334 205.663C20.1429 205.045 18.0156 205.38 16.6627 205.38C15.3722 205.38 14.0819 205.38 12.7915 205.38C9.09227 205.38 20.878 208.464 21.1361 208.218C21.2847 208.077 16.217 205.849 15.7712 205.663C15.3645 205.492 14.5824 204.672 14.5824 205.097C14.5824 206.721 16.6313 207.704 17.562 209.068C19.1887 211.466 21.7305 215.467 21.7305 218.439C21.7305 218.737 21.5272 217.873 21.4334 217.59C21.23 216.927 20.9328 216.286 20.839 215.601C20.534 213.239 20.5417 210.602 20.5417 208.218C20.5417 207.838 20.5417 206.706 20.5417 207.079C20.5417 210.23 20.5418 213.314 20.839 216.45C21.2066 220.301 21.1361 218.096 21.1361 221.277C21.1361 221.471 21.183 222.03 21.1361 221.844C20.5339 219.534 20.7372 217.016 19.9473 214.752C19.7518 214.2 19.8379 215.906 19.6502 216.45C19.3687 217.247 17.7809 218.014 16.9676 218.156C15.9353 218.335 13.4248 218.029 12.4942 217.873C12.1813 217.821 11.2899 217.627 11.5949 217.59C15.2158 217.098 19.6188 218.432 23.2241 219.005" stroke="#A20000" stroke-width="1.76948" stroke-miterlimit="10" stroke-linecap="round" stroke-linejoin="round"/>
<path d="M146.337 218.722C146.337 220.823 148.315 232.399 150.513 232.921C152.859 233.479 157.567 229.635 159.155 228.377C160.758 227.11 162.401 225.687 162.44 225.821C163.323 229.211 153.508 231.572 151.405 232.071C151.115 232.139 152.007 232.094 152.304 232.071C153 232.004 153.704 231.945 154.392 231.788C157.184 231.118 159.757 229.889 162.143 228.377C163.073 227.781 165.646 226.104 164.52 226.104C162.025 226.104 158.334 229.39 156.175 230.366C155.213 230.805 154.15 231.043 153.196 231.498C152.75 231.714 151.655 232.019 152.007 232.355C152.531 232.854 153.759 231.535 154.087 231.215" stroke="#A20000" stroke-width="1.76948" stroke-miterlimit="10" stroke-linecap="round" stroke-linejoin="round"/>
<path d="M130.243 138.364C130.243 141.329 131.416 144.964 132.034 147.735C133.004 152.116 134.419 156.198 135.608 160.511C135.819 161.271 136.031 162.024 136.203 162.783C136.336 163.35 136.508 165.063 136.508 164.489C136.508 157.979 136.281 153.114 137.993 146.596C138.987 142.819 139.409 140.636 139.19 140.636C138.463 140.636 137.634 144.48 136.805 146.596C136.304 147.869 132.183 157.487 132.926 157.956C133.966 158.612 134.302 155.952 134.717 154.835C135.201 153.501 135.749 152.198 136.203 150.857C137.9 145.866 139.769 140.435 140.676 135.242C140.825 134.401 140.746 133.537 140.676 132.687C140.629 132.136 140.121 130.817 139.784 131.264C139.12 132.151 137.704 137.783 137.696 137.798C137.266 139.496 136.938 141.21 136.508 142.908C136.101 144.495 134.412 148.562 135.014 150.857C135.241 151.721 136.234 149.441 136.508 148.585C136.883 147.378 137.133 146.134 137.399 144.897C138.259 140.926 138.353 136.926 139.19 132.97" stroke="#A20000" stroke-width="1.76948" stroke-miterlimit="10" stroke-linecap="round" stroke-linejoin="round"/>
<path d="M131.133 107.694C129.108 108.983 129.897 113.013 129.944 114.793C130.14 121.811 130.891 128.813 131.438 135.808C131.735 139.69 131.923 143.578 132.33 147.452C132.376 147.929 132.854 149.3 132.627 148.868C131.11 145.977 131.329 141.776 130.836 138.647C130.586 137.03 130.132 135.443 129.944 133.819C129.921 133.633 129.944 133.067 129.944 133.253C129.944 143.787 133.182 153.747 135.607 163.923" stroke="#A20000" stroke-width="1.76948" stroke-miterlimit="10" stroke-linecap="round" stroke-linejoin="round"/>
<path d="M30.9837 132.576C30.9837 144.435 33.7209 156.235 34.4091 168.043C34.7063 173.146 33.0796 178.413 32.6964 183.531C31.9612 193.312 32.5869 203.525 33.1266 213.292M33.1266 213.292C33.4472 219.132 33.9789 224.965 33.9789 230.82C33.9789 231.916 33.2594 234.083 34.4091 234.083C34.6281 234.083 33.5646 227.721 33.5567 227.558C33.3143 224.175 33.7757 220.749 33.5567 217.366C33.4942 216.405 33.2282 215.467 33.1266 214.513C33.0796 214.111 33.2595 212.904 33.1266 213.292ZM33.1266 213.292C30.8429 219.817 32.2506 230.537 32.6964 237.339C32.7199 237.674 33.5097 244.677 34.4091 244.677C35.2381 244.677 34.8784 240.177 34.8393 239.79C34.4951 236.191 32.9154 231.022 30.9837 227.967C30.8195 227.706 30.8742 227.148 30.5614 227.148C29.9904 227.148 30.5614 228.235 30.5614 228.779C30.5614 230.001 30.4284 231.23 30.5614 232.452C30.8116 234.888 33.5802 244.811 37.8346 243.455C42.3394 242.025 33.6897 240.274 33.1266 239.38C32.2115 237.935 32.6964 235.67 32.6964 234.083" stroke="#A20000" stroke-width="1.76948" stroke-miterlimit="10" stroke-linecap="round" stroke-linejoin="round"/>
<path d="M36.5498 242.643C36.5498 246.554 45.1214 245.086 47.2487 245.086C54.2091 245.086 61.3101 245.749 68.2158 245.086C70.8044 244.841 73.3697 244.349 75.9193 243.865C76.9125 243.678 77.9214 243.626 78.9146 243.455C79.4934 243.358 81.0418 243.447 80.6273 243.053C80.0564 242.501 68.4661 245.593 66.9333 245.906C65.6429 246.159 64.3681 246.457 63.0777 246.718C62.3739 246.867 60.2936 246.815 60.9427 247.128C64.8765 248.997 72.2592 245.727 75.9193 244.677C82.2931 242.859 93.5157 240.222 99.8896 243.865C102.901 245.585 94.9705 243.902 94.7516 243.865C90.8334 243.246 87.0325 243.231 83.1925 244.274C82.7624 244.393 81.9098 244.252 81.9098 244.677C81.9098 246.226 85.0616 245.466 86.6179 245.906C93.4063 247.805 97.6452 248.163 103.738 244.677C104.011 244.528 104.598 244.58 104.598 244.274C104.598 244.267 90.6768 244.855 90.8958 245.496C91.3025 246.643 96.6754 246.323 96.8944 246.308C103.651 245.936 110.432 243.708 117.009 242.233C117.651 242.092 121.436 241.123 122.57 241.011C123.563 240.915 126.269 241.682 125.565 241.011C124.673 240.162 119.973 241.362 120.004 241.421C121.35 243.991 127.7 237.458 128.13 236.936C138.704 224.123 135.278 204.777 132.838 190.056C129.718 171.202 127.278 151.647 127.278 132.576" stroke="#A20000" stroke-width="1.76948" stroke-miterlimit="10" stroke-linecap="round" stroke-linejoin="round"/>
<path d="M51.9575 64.0845C46.9914 61.723 39.8199 66.6993 35.6906 68.5692C25.4455 73.2177 11.3839 74.3501 8.30253 86.098C6.78531 91.8714 5.73732 97.6746 5.73732 103.627C5.73732 104.99 4.30613 107.709 5.73732 107.709C6.06579 107.709 7.2232 98.0099 7.45 97.1085C8.96722 90.8285 11.9938 83.6993 16.436 78.7602C22.3641 72.1674 33.5712 69.642 42.1114 68.1595C45.2944 67.6082 47.8674 65.8203 51.0974 65.3063C51.6604 65.2169 52.81 65.3063 52.81 65.3063C52.81 65.3063 49.0015 65.1275 47.2496 65.716C44.9503 66.4908 38.725 69.0683 36.9731 69.7909C28.4095 73.3295 18.2738 76.436 14.2931 85.286C6.12048 103.441 5.7216 123.845 4.87696 143.169C4.43118 153.464 2.93747 164.013 5.30714 174.152" stroke="#A20000" stroke-width="1.76948" stroke-miterlimit="10" stroke-linecap="round" stroke-linejoin="round"/>
<path d="M94.5791 57.0295C99.4045 61.6259 108.969 62.0506 115.273 63.6895C122.609 65.5966 132.337 71.1539 138.195 75.9365C147.705 83.6989 150.278 96.095 153.571 107.098C154.752 111.016 156.128 114.935 157.489 118.816C157.872 119.904 158.193 120.611 158.326 121.744C158.388 122.28 158.701 123.874 158.607 123.338C157.958 119.643 156.245 116.045 155.252 112.424C154.986 111.441 154.533 109.057 154.415 107.895C154.384 107.627 154.321 106.845 154.415 107.098C157.802 116.775 158.599 126.593 160.007 136.658C161.485 147.214 163.55 157.777 164.481 168.348C165.106 175.567 163.042 183.069 163.918 190.19C164.285 193.133 166.053 195.77 166.436 198.713C167.312 205.41 168.109 212.733 168.109 219.482" stroke="#A20000" stroke-width="1.76948" stroke-miterlimit="10" stroke-linecap="round" stroke-linejoin="round"/>
<path d="M151.335 228.004C144.555 232.31 154.354 234.888 158.89 229.338C159.273 228.869 159.922 228.302 159.727 227.736C158.859 225.27 150.96 231.975 150.217 232.795C150.045 232.988 149.544 233.107 149.662 233.331C150.749 235.409 157.967 232.496 157.49 230.664C157.185 229.502 150.616 230.068 149.662 230.135C148.981 230.187 147.402 230.09 147.707 230.664C148.504 232.199 159.32 229.628 160.845 229.07C162.011 228.645 163.059 227.952 164.2 227.468C164.466 227.356 165.248 227.401 165.037 227.207C164.38 226.574 154.417 231.059 153.017 231.469C152.563 231.603 151.617 232.184 151.617 231.729C151.617 231.252 152.54 231.342 153.017 231.2C154.417 230.791 165.999 228.273 164.2 228.273" stroke="#A20000" stroke-width="1.76948" stroke-miterlimit="10" stroke-linecap="round" stroke-linejoin="round"/>
<path d="M149.38 222.41C149.38 217.836 147.698 218.394 148.824 222.678C149.301 224.503 150.083 226.246 150.78 228.004C151.116 228.861 151.749 231.215 152.179 230.403C153.001 228.831 149.137 220.137 147.706 222.41C146.666 224.063 149.677 228.064 150.498 229.338C150.85 229.882 151.241 230.403 151.616 230.932C151.804 231.2 152.07 232.034 152.179 231.729C152.891 229.68 147.409 221.456 148.543 220.011C149.411 218.908 156.426 222.41 158.326 222.41C158.545 222.41 159.609 222.164 159.445 221.613C158.632 218.901 153.001 219.623 150.78 219.75C149.935 219.795 149.098 219.892 148.261 220.011C147.886 220.07 146.791 220.145 147.143 220.279C151.077 221.776 156.113 218.409 159.445 216.815C160.845 216.152 163.918 215.489 163.918 215.489C163.918 215.489 160.696 216.621 159.163 217.351C156.379 218.677 150.584 220.696 148.824 223.207C148.394 223.818 150.412 223.073 151.061 222.678C152.18 222 153.087 221.054 154.135 220.279C154.502 220.011 155.159 219.05 155.253 219.482C155.793 222.059 152.133 226.537 153.572 230.664C153.681 230.969 153.806 231.528 154.135 231.468C155.253 231.252 155.472 227.706 158.89 227.207C160.141 227.021 168.783 227.021 168.392 224.808C167.641 220.502 160.751 226.783 162.518 227.207C166.202 228.079 168.227 217.366 167.555 215.221C167.438 214.841 167.414 214.156 166.992 214.156C165.967 214.156 166.64 216.107 166.718 217.083C166.812 218.417 168.181 228.541 167.837 228.801C166.108 230.12 162.135 231.155 160.008 231.729C159.179 231.96 156.88 231.684 157.49 232.265C159.296 233.986 166.194 230.12 167.837 229.338" stroke="#A20000" stroke-width="1.76948" stroke-miterlimit="10" stroke-linecap="round" stroke-linejoin="round"/>
<path d="M130.931 113.222C130.931 112.402 130.977 110.249 130.367 110.823C128.834 112.29 129.335 118.898 129.249 120.142C129.085 122.451 128.827 124.761 128.694 127.07C128.138 136.33 127.263 146.588 130.086 155.565" stroke="#A20000" stroke-width="1.76948" stroke-miterlimit="10" stroke-linecap="round" stroke-linejoin="round"/>
</svg>
