<svg width="53" height="76" viewBox="0 0 53 76" fill="none" xmlns="http://www.w3.org/2000/svg">
<path d="M20.2423 71.3997C18.002 67.2044 15.2834 63.4775 13.1446 59.2C6.96902 46.8481 -0.603948 30.3562 4.71644 16.1693C11.6211 -2.24367 44.6232 -1.20545 49.5191 18.3872C52.9875 32.2596 39.6527 46.1843 32.2205 56.0945C29.2981 59.9906 26.8139 64.3896 24.2353 68.5157C23.6031 69.527 22.994 70.5545 22.4611 71.6212C22.2519 72.0395 22.3718 73.2562 22.0173 72.9516C20.8029 71.9111 20.7653 72.3779 20.2423 71.3997Z" stroke="#A20000" stroke-width="4.375" stroke-miterlimit="10" stroke-linecap="round" stroke-linejoin="round"/>
<path d="M23.3481 20.3831C23.142 20.4215 21.6731 19.8901 21.1301 20.1615C19.4282 21.0129 19.3244 26.7217 19.7997 28.1467C20.6118 30.5839 24.1287 31.7168 26.4536 31.2522C28.0925 30.9246 29.4368 28.6736 30.0028 27.2593C30.6481 25.645 31.6625 23.1148 30.4466 21.4928C29.9836 20.8753 24.1487 18.5611 23.7919 19.2741C23.5196 19.8193 24.0787 20.2492 23.3481 20.3831Z" stroke="#A20000" stroke-width="4.375" stroke-miterlimit="10" stroke-linecap="round" stroke-linejoin="round"/>
</svg>
