<svg width="98" height="66" viewBox="0 0 98 66" fill="none" xmlns="http://www.w3.org/2000/svg">
<path d="M21.8138 4.05866C21.9091 3.40936 21.8979 1.50405 22.1002 2.12141C22.6452 3.78722 21.4679 9.71607 21.3652 10.4079C20.9831 12.9838 20.6009 15.565 20.2188 18.1409C18.3891 30.4775 17.5578 42.713 16.7052 55.1454C16.5487 57.4285 16.3869 59.7064 16.1852 61.9842C16.1421 62.4685 15.8983 63.9161 15.9702 63.4318C16.1613 62.1439 16.3523 60.856 16.5434 59.568" stroke="#A20000" stroke-width="3.49857" stroke-miterlimit="10" stroke-linecap="round" stroke-linejoin="round"/>
<path d="M2 27.7844C5.07297 23.3937 17.4394 21.2968 21.8652 20.3601C24.6875 19.7641 27.5535 19.2478 30.437 19.1627C33.0043 19.0882 45.275 22.9839 40.475 28.0559C38.8422 29.7802 33.2529 32.8298 31.7414 33.676C29.6105 34.8682 27.4976 36.1028 25.2985 37.1619C23.0606 38.2423 20.7284 39.1205 18.4437 40.0944C13.7623 42.1008 9.0986 44.3042 4.25178 45.8902" stroke="#A20000" stroke-width="3.49857" stroke-miterlimit="10" stroke-linecap="round" stroke-linejoin="round"/>
<path d="M36.4741 59.9982C33.2542 60.7965 35.9844 64.9691 36.4294 61.9674C36.5747 60.9882 36.5534 59.9823 36.4741 59.9982Z" stroke="#A20000" stroke-width="3.49857" stroke-miterlimit="10" stroke-linecap="round" stroke-linejoin="round"/>
<path d="M73.8712 22.59C74.7631 21.9247 79.4375 18.9443 79.0794 17.4329C78.1177 13.3881 70.9419 14.5802 68.5214 15.3732C63.9896 16.8581 57.0858 21.2328 58.856 27.2734C61.6777 36.901 73.6104 36.5179 80.8298 38.9288C84.3184 40.089 86.9475 42.8405 86.1077 46.6245C84.2897 54.8099 73.1415 57.0984 66.2239 57.5029C64.2669 57.6146 62.2935 57.4123 60.3541 57.125C60.31 57.1196 55.0193 56.4703 55.3263 54.4054C55.5355 52.9897 59.2775 54.0009 59.3349 54.0115" stroke="#A20000" stroke-width="3.49857" stroke-miterlimit="10" stroke-linecap="round" stroke-linejoin="round"/>
<path d="M94.2852 54.7508L96.0212 53.0317" stroke="#A20000" stroke-width="3.49857" stroke-miterlimit="10" stroke-linecap="round" stroke-linejoin="round"/>
</svg>
